<svg width="173" height="173" viewBox="0 0 173 173" fill="none" xmlns="http://www.w3.org/2000/svg">
<path d="M108.696 7.04753L111.315 7.84073C112.515 8.21967 113.379 8.67144 113.907 9.19604C114.435 9.72065 114.57 10.3898 114.313 11.2036C114.14 11.7528 113.848 12.1809 113.438 12.4876C113.038 12.7976 112.598 12.9885 112.116 13.0603C112.576 13.3397 112.971 13.7382 113.299 14.2559C113.697 14.8737 113.763 15.6047 113.496 16.4489C113.233 17.283 112.811 17.8936 112.23 18.2807C111.649 18.6678 110.996 18.8755 110.271 18.904C109.557 18.9356 108.711 18.7973 107.735 18.489C106.161 17.9473 105.353 17.6701 105.313 17.6572L104.082 17.3024L104.193 16.9514C104.554 16.5173 104.881 15.8373 105.173 14.9117L106.931 9.34267C107.246 8.34584 107.4 7.55566 107.394 6.97214L107.5 6.63647C107.779 6.74673 108.177 6.88375 108.696 7.04753ZM108.808 12.8044L108.274 12.6358C107.506 15.0668 107.061 16.5313 106.937 17.0292C107.325 17.2186 107.625 17.3471 107.839 17.4145C108.612 17.6586 109.298 17.646 109.898 17.3767C110.508 17.1105 110.923 16.6266 111.145 15.9247C111.601 14.4803 110.822 13.4402 108.808 12.8044ZM112.088 10.9708C112.281 10.3605 112.265 9.88006 112.04 9.52942C111.815 9.17879 111.423 8.91516 110.863 8.73853C110.314 8.56512 109.902 8.45192 109.628 8.39894C109.573 8.53814 109.22 9.64017 108.568 11.705L109.605 12.0326C110.907 12.4437 111.735 12.0897 112.088 10.9708ZM117.227 22.0032L114.683 20.8335L114.83 20.5137C115.236 20.0661 115.617 19.4547 115.973 18.6794L116.969 16.5134C117.165 16.0869 117.272 15.6372 117.29 15.1641C117.322 14.6858 117.256 14.3324 117.091 14.1039L117.238 13.7841L119.508 14.2468L119.56 14.5172C119.578 14.6311 119.574 14.8699 119.547 15.2335C120.418 14.9998 121.197 15.0411 121.885 15.3575C122.225 15.5135 122.508 15.7261 122.737 15.9955C122.714 16.044 122.694 16.0876 122.677 16.1263C122.396 16.7369 121.994 17.2917 121.471 17.7909C121.122 17.1961 120.652 16.7629 120.061 16.491C119.877 16.4064 119.641 16.333 119.352 16.2708L118.036 19.1346C117.608 20.0649 117.387 20.9146 117.374 21.6834L117.227 22.0032ZM125.676 23.0391C125.418 22.7225 125.088 22.4435 124.686 22.2019C124.293 21.9658 123.947 21.8577 123.649 21.8778C123.407 21.9692 123.201 22.1566 123.031 22.4401C122.603 23.1534 122.7 23.6968 123.322 24.0701C123.834 24.3776 124.385 24.4226 124.976 24.2051L125.676 23.0391ZM122.043 24.9259C121.467 24.58 121.063 24.1015 120.833 23.4904C120.603 22.8794 120.685 22.2446 121.081 21.5862C121.844 20.315 123.154 20.2367 125.01 21.3513L126.198 22.1392L126.7 21.3024C126.986 20.8269 127.098 20.3714 127.035 19.936C126.973 19.5006 126.695 19.1347 126.202 18.8382C126.092 18.7723 125.914 18.7466 125.669 18.7612C125.43 18.7666 125.215 18.7931 125.024 18.8406C124.435 18.9721 123.958 19.0836 123.592 19.175C123.459 18.3609 123.538 17.6685 123.831 17.0978C125.221 17.4348 126.319 17.8449 127.124 18.3281C127.928 18.8112 128.488 19.4023 128.803 20.1012C129.117 20.8001 129.033 21.5519 128.549 22.3566L127.256 24.5103C127.009 24.9218 126.842 25.3562 126.754 25.8135C126.666 26.2708 126.684 26.6239 126.808 26.8727L126.655 27.191L124.446 26.4248C124.464 26.0626 124.558 25.5961 124.726 25.0254C124.335 25.1387 124.027 25.2155 123.804 25.2557C123.587 25.2867 123.309 25.2821 122.973 25.2417C122.645 25.2069 122.335 25.1016 122.043 24.9259ZM136.956 25.3189C137.58 25.8189 137.906 26.4013 137.934 27.066C137.969 27.7224 137.693 28.4169 137.106 29.1496L135.836 30.7357C135.176 31.56 134.738 32.3635 134.521 33.1464L134.301 33.4211L132.103 31.6609L132.323 31.3862C132.777 31.1082 133.298 30.6029 133.885 29.8702L135.135 28.309C135.522 27.8261 135.747 27.4256 135.81 27.1074C135.881 26.781 135.724 26.4644 135.341 26.1577C134.958 25.851 134.331 25.6358 133.46 25.5121L131.82 27.5603C131.12 28.4345 130.684 29.2264 130.512 29.936L130.292 30.2108L128.106 28.4606L128.326 28.1858C128.808 27.8745 129.352 27.34 129.959 26.5824L131.299 24.9088C132.092 23.918 132.339 23.0977 132.04 22.4479L132.26 22.1731L134.593 23.4062L134.54 23.7535C134.447 24.0066 134.279 24.3097 134.037 24.6628C134.735 24.6615 135.305 24.7009 135.747 24.781C136.203 24.8596 136.606 25.0388 136.956 25.3189ZM139.897 33.4045C138.551 34.6975 138.255 35.7363 139.008 36.5211C139.54 37.075 140.473 37.5767 141.807 38.0262L141.622 38.7806C141.042 38.7462 140.369 38.6081 139.605 38.3663C138.847 38.1322 138.299 37.8382 137.959 37.4843C137.124 36.6149 136.728 35.6715 136.772 34.6539C136.83 33.6366 137.294 32.7106 138.163 31.8757C139.04 31.0334 140.074 30.6545 141.264 30.739C142.462 30.816 143.456 31.2662 144.247 32.0894C145.037 32.9126 145.521 33.8088 145.697 34.778C145.008 34.9376 144.429 35.0202 143.961 35.0258C143.84 33.9445 143.505 33.1192 142.959 32.5499C142.818 32.4037 142.681 32.284 142.547 32.1908C142.171 32.1681 141.742 32.2612 141.263 32.4703C140.783 32.6794 140.328 32.9908 139.897 33.4045ZM143.521 44.1605C142.785 43.1659 142.496 42.1657 142.654 41.1597C142.819 40.1623 143.377 39.3115 144.328 38.6072C145.28 37.9029 146.339 37.6302 147.505 37.7891C148.679 37.9417 149.644 38.5282 150.399 39.5485C151.161 40.5774 151.454 41.5745 151.279 42.5398C151.119 43.5073 150.559 44.3464 149.599 45.0571C148.639 45.7678 147.571 46.0468 146.397 45.8942C145.222 45.7416 144.264 45.1637 143.521 44.1605ZM147.907 43.443C148.739 42.8275 149.297 42.2284 149.582 41.6457C149.876 41.0567 149.801 40.462 149.357 39.8618C149.072 39.476 148.755 39.2457 148.408 39.1709C148.109 39.1797 147.731 39.2871 147.273 39.4933C146.815 39.6994 146.402 39.9389 146.033 40.2117C144.241 41.5379 143.767 42.7711 144.611 43.9115C144.865 44.2545 145.161 44.4665 145.5 44.5476C145.805 44.5474 146.184 44.4325 146.638 44.2029C147.107 43.9755 147.53 43.7222 147.907 43.443ZM156.716 50.0401C156.487 50.1542 155.868 50.7065 154.86 51.6971L152.774 53.826L156.338 53.2666C156.939 53.1817 157.474 53.0228 157.942 52.7898L158.114 52.7042L159.134 54.7523L158.819 54.9092C158.499 54.7227 157.896 54.6835 157.008 54.7918L151.598 55.4483L150.753 55.6187L149.826 53.8998L150.528 53.2284L154.306 49.2204C154.54 48.9727 154.743 48.6988 154.915 48.3985C155.087 48.0983 155.169 47.879 155.16 47.7406L155.475 47.5837L156.888 49.9545L156.716 50.0401ZM157.005 62.2074C157.006 61.7991 156.927 61.3741 156.768 60.9325C156.613 60.5009 156.413 60.1985 156.17 60.0254C155.925 59.9434 155.647 59.9583 155.336 60.0702C154.553 60.3517 154.284 60.8338 154.529 61.5163C154.732 62.0784 155.13 62.4622 155.725 62.6675L157.005 62.2074ZM152.998 61.37C152.77 60.7376 152.761 60.112 152.969 59.493C153.177 58.8741 153.642 58.4347 154.365 58.1748C155.76 57.6732 156.824 58.4411 157.557 60.4787L157.979 61.8404L158.897 61.5102C159.419 61.3225 159.794 61.0404 160.021 60.664C160.248 60.2875 160.265 59.8282 160.07 59.2862C160.026 59.1658 159.905 59.0336 159.706 58.8898C159.517 58.7424 159.334 58.627 159.156 58.5434C158.617 58.2726 158.177 58.0569 157.836 57.8962C158.247 57.1813 158.747 56.6956 159.335 56.4389C160.198 57.5793 160.789 58.5912 161.106 59.4745C161.424 60.3578 161.484 61.1695 161.285 61.9097C161.086 62.6499 160.545 63.1788 159.662 63.4964L157.298 64.3464C156.847 64.5088 156.442 64.7393 156.085 65.0378C155.727 65.3363 155.518 65.6213 155.457 65.8926L155.136 66.0419L153.911 64.0512C154.154 63.7823 154.521 63.4802 155.013 63.1448C154.638 62.9849 154.351 62.8499 154.153 62.7398C153.965 62.6261 153.753 62.4472 153.518 62.203C153.287 61.9689 153.113 61.6912 152.998 61.37ZM164.301 71.1012C164.468 71.8834 164.353 72.5409 163.955 73.0736C163.567 73.6041 162.914 73.9678 161.996 74.1646L160.009 74.5907C158.976 74.8121 158.129 75.1575 157.466 75.627L157.122 75.7008L156.531 72.9474L156.875 72.8736C157.403 72.9457 158.126 72.8834 159.044 72.6866L161 72.2673C161.605 72.1375 162.032 71.9695 162.283 71.7631C162.543 71.5544 162.622 71.2102 162.519 70.7305C162.416 70.2507 162.067 69.6876 161.47 69.041L158.904 69.5912C157.809 69.826 156.971 70.164 156.389 70.6051L156.045 70.6789L155.458 67.9412L155.802 67.8674C156.372 67.9306 157.131 67.8605 158.08 67.6569L160.177 67.2074C161.418 66.9412 162.128 66.4617 162.306 65.7689L162.65 65.6951L163.679 68.1254L163.419 68.3613C163.186 68.4984 162.865 68.6273 162.454 68.7481C162.996 69.1883 163.412 69.579 163.704 69.9201C164.008 70.2695 164.207 70.6632 164.301 71.1012ZM168.906 83.0759L168.957 85.8116C168.966 87.0702 168.802 88.0314 168.465 88.6951C168.129 89.3588 167.534 89.6937 166.68 89.6996C166.104 89.7037 165.607 89.5578 165.189 89.2621C164.771 88.977 164.454 88.6166 164.238 88.1807C164.113 88.7043 163.856 89.2021 163.464 89.6742C162.999 90.2428 162.324 90.5302 161.438 90.5364C160.564 90.5425 159.853 90.3288 159.306 89.8953C158.759 89.4618 158.36 88.9046 158.11 88.2237C157.86 87.5534 157.731 86.7063 157.724 85.6823C157.755 84.0181 157.77 83.1646 157.77 83.1219L157.729 81.8422L158.097 81.8396C158.621 82.0493 159.369 82.1507 160.339 82.1439L166.179 82.103C167.225 82.0956 168.024 81.9994 168.577 81.8142L168.929 81.8117C168.91 82.1105 168.902 82.5319 168.906 83.0759ZM163.463 84.9541L163.459 84.3941C160.91 84.412 159.379 84.4387 158.868 84.4743C158.807 84.9014 158.777 85.2269 158.778 85.4509C158.784 86.2616 159.007 86.9107 159.448 87.3983C159.889 87.8965 160.477 88.1431 161.213 88.1379C162.728 88.1273 163.478 87.066 163.463 84.9541ZM166.217 87.5108C166.857 87.5064 167.309 87.3432 167.574 87.0213C167.838 86.6995 167.968 86.2452 167.964 85.6586C167.96 85.0826 167.941 84.656 167.907 84.3789C167.758 84.3693 166.6 84.3721 164.435 84.3873L164.443 85.4752C164.452 86.8405 165.044 87.5191 166.217 87.5108ZM156.938 95.8448C157.058 94.9247 157.51 94.1446 158.293 93.5048C159.076 92.8649 160.049 92.621 161.213 92.7732C162.387 92.9267 163.362 93.4469 164.139 94.3338C164.926 95.2221 165.24 96.2797 165.079 97.5065C164.944 98.5431 164.51 99.2716 163.777 99.6921C163.044 100.113 162.091 100.246 160.917 100.093L160.377 99.4088L160.946 95.0619C160.183 94.9728 159.569 95.097 159.106 95.4344C158.641 95.7824 158.372 96.2314 158.3 96.7813C158.227 97.3419 158.408 98.2208 158.843 99.418L158.188 99.7358C158.024 99.5099 157.858 99.2569 157.69 98.9768C157.523 98.6967 157.335 98.2365 157.129 97.5963C156.931 96.9681 156.868 96.3842 156.938 95.8448ZM164.112 97.0089C164.163 96.6175 164.124 96.2951 163.996 96.0417C163.754 95.8379 163.422 95.6601 163.001 95.5082C162.58 95.3563 162.201 95.2529 161.864 95.1981L161.659 97.9952C163.182 98.1943 164 97.8656 164.112 97.0089ZM155.309 104.27C155.541 103.371 156.084 102.652 156.939 102.112C157.795 101.573 158.79 101.449 159.926 101.742C161.073 102.038 161.978 102.673 162.641 103.648C163.314 104.626 163.496 105.714 163.187 106.912C162.926 107.924 162.406 108.594 161.628 108.922C160.849 109.25 159.887 109.267 158.74 108.971L158.288 108.227L159.382 103.981C158.636 103.8 158.012 103.848 157.511 104.127C157.007 104.415 156.685 104.828 156.547 105.365C156.406 105.913 156.478 106.807 156.764 108.049L156.075 108.284C155.94 108.04 155.806 107.769 155.674 107.47C155.542 107.172 155.412 106.692 155.285 106.031C155.165 105.384 155.173 104.797 155.309 104.27ZM162.287 106.3C162.386 105.918 162.387 105.593 162.291 105.326C162.075 105.094 161.767 104.877 161.368 104.675C160.968 104.473 160.605 104.324 160.277 104.229L159.733 106.98C161.22 107.363 162.072 107.137 162.287 106.3ZM153.1 112.123L154.056 109.713L154.383 109.843C154.806 110.195 155.494 110.559 156.445 110.937L162.29 113.258C163.142 113.596 163.87 113.627 164.474 113.35L164.801 113.48L164.347 116.14L163.949 116.189C163.683 116.049 162.723 115.65 161.067 114.993L158.182 113.848L158.992 116.751C159.08 117.05 159.218 117.237 159.406 117.312L158.479 119.646L158.152 119.517C158.252 119.12 158.166 118.484 157.895 117.607L157.047 114.843L153.114 116.38C152.882 116.472 152.559 116.636 152.143 116.873C151.734 117.124 151.459 117.353 151.319 117.561L150.992 117.431L152.114 114.606C152.302 114.681 152.54 114.66 152.827 114.545C153.26 114.407 154.495 113.956 156.531 113.192L155.862 112.927C154.781 112.498 153.97 112.273 153.427 112.252L153.1 112.123ZM145 126.025C145.49 125.301 146.087 124.714 146.792 124.263C147.487 123.806 148.238 123.496 149.044 123.333C149.853 123.185 150.668 123.19 151.489 123.346C152.304 123.512 153.074 123.839 153.798 124.33C154.532 124.826 155.122 125.419 155.57 126.108C156.021 126.813 156.323 127.565 156.477 128.365C156.634 129.179 156.63 129.994 156.464 130.81C156.308 131.631 155.984 132.404 155.494 133.128C154.998 133.862 154.401 134.449 153.702 134.891C153.007 135.347 152.255 135.65 151.446 135.798C150.64 135.961 149.83 135.96 149.014 135.794C148.202 135.644 147.429 135.32 146.696 134.824C145.971 134.334 145.384 133.736 144.933 133.032C144.476 132.337 144.17 131.582 144.013 130.767C143.858 129.967 143.864 129.159 144.03 128.344C144.18 127.531 144.504 126.759 145 126.025ZM144.429 145.197L142.44 147.076C141.515 147.93 140.694 148.456 139.977 148.653C139.259 148.851 138.611 148.636 138.032 148.009C137.642 147.586 137.415 147.12 137.352 146.612C137.282 146.111 137.335 145.634 137.511 145.18C137.041 145.441 136.499 145.585 135.886 145.613C135.153 145.652 134.485 145.346 133.885 144.695C133.292 144.052 132.971 143.383 132.924 142.687C132.876 141.99 133.02 141.32 133.355 140.677C133.683 140.041 134.223 139.376 134.975 138.681C136.227 137.584 136.869 137.021 136.9 136.992L137.819 136.1L138.068 136.371C138.266 136.9 138.694 137.521 139.352 138.234L143.313 142.525C144.022 143.294 144.631 143.82 145.141 144.105L145.38 144.363C145.146 144.55 144.829 144.828 144.429 145.197ZM139.377 142.436L139.788 142.056C138.059 140.182 137.009 139.068 136.638 138.714C136.281 138.956 136.021 139.153 135.856 139.305C135.26 139.855 134.93 140.457 134.867 141.111C134.795 141.773 135.008 142.374 135.508 142.915C136.535 144.028 137.825 143.868 139.377 142.436ZM139.339 146.193C139.773 146.664 140.198 146.888 140.614 146.867C141.03 146.846 141.454 146.637 141.885 146.239C142.308 145.848 142.611 145.547 142.793 145.335C142.7 145.218 141.919 144.364 140.45 142.773L139.65 143.511C138.647 144.437 138.543 145.331 139.339 146.193ZM127.212 145.175L129.49 143.548L129.695 143.834C129.882 144.408 130.224 145.043 130.72 145.737L132.106 147.677C132.378 148.059 132.716 148.375 133.118 148.625C133.517 148.891 133.857 149.009 134.137 148.979L134.341 149.265L132.813 151.006L132.552 150.917C132.444 150.876 132.239 150.754 131.936 150.551C131.707 151.422 131.284 152.078 130.668 152.518C130.364 152.735 130.039 152.876 129.692 152.941C129.661 152.897 129.633 152.858 129.608 152.823C129.217 152.277 128.935 151.652 128.762 150.95C129.451 150.943 130.06 150.75 130.59 150.372C130.755 150.254 130.936 150.086 131.133 149.866L129.301 147.301C128.706 146.468 128.078 145.855 127.417 145.462L127.212 145.175ZM122.14 152.007C122.543 151.938 122.948 151.789 123.357 151.558C123.756 151.332 124.021 151.085 124.15 150.815C124.19 150.56 124.128 150.289 123.965 150.001C123.556 149.277 123.036 149.093 122.404 149.45C121.884 149.744 121.573 150.201 121.471 150.823L122.14 152.007ZM122.29 147.915C122.875 147.585 123.491 147.47 124.136 147.571C124.781 147.672 125.292 148.056 125.67 148.725C126.4 150.016 125.822 151.194 123.937 152.259L122.666 152.904L123.146 153.754C123.419 154.237 123.76 154.559 124.169 154.719C124.579 154.88 125.034 154.819 125.536 154.535C125.647 154.472 125.757 154.331 125.865 154.11C125.979 153.899 126.062 153.699 126.114 153.51C126.29 152.933 126.429 152.462 126.53 152.099C127.303 152.384 127.866 152.795 128.219 153.331C127.24 154.375 126.342 155.127 125.525 155.589C124.707 156.051 123.917 156.246 123.154 156.175C122.391 156.104 121.779 155.66 121.317 154.843L120.081 152.656C119.845 152.238 119.549 151.878 119.195 151.576C118.841 151.274 118.524 151.116 118.247 151.101L118.046 150.81L119.801 149.267C120.107 149.461 120.467 149.773 120.88 150.201C120.975 149.804 121.06 149.499 121.135 149.285C121.215 149.08 121.356 148.842 121.557 148.569C121.749 148.301 121.993 148.083 122.29 147.915ZM114.575 160.688C113.831 160.983 113.164 160.978 112.572 160.674C111.985 160.379 111.518 159.795 111.172 158.923L110.422 157.034C110.033 156.053 109.551 155.274 108.979 154.698L108.849 154.371L111.466 153.332L111.596 153.659C111.612 154.192 111.794 154.895 112.14 155.767L112.878 157.626C113.106 158.201 113.342 158.595 113.587 158.808C113.836 159.03 114.189 159.051 114.645 158.87C115.101 158.689 115.598 158.251 116.137 157.555L115.169 155.116C114.756 154.075 114.284 153.304 113.752 152.803L113.623 152.476L116.225 151.444L116.355 151.771C116.387 152.343 116.582 153.081 116.94 153.983L117.731 155.976C118.199 157.155 118.79 157.776 119.503 157.837L119.633 158.165L117.406 159.582L117.131 159.364C116.957 159.158 116.776 158.862 116.589 158.477C116.245 159.084 115.929 159.56 115.641 159.904C115.346 160.261 114.991 160.523 114.575 160.688ZM106.073 159.234C105.623 157.422 104.871 156.647 103.815 156.909C103.069 157.094 102.169 157.652 101.115 158.584L100.553 158.047C100.872 157.562 101.327 157.048 101.918 156.506C102.498 155.966 103.027 155.637 103.503 155.519C104.673 155.229 105.688 155.357 106.549 155.901C107.401 156.459 107.973 157.323 108.263 158.493C108.555 159.673 108.368 160.758 107.702 161.748C107.037 162.748 106.151 163.385 105.044 163.66C103.936 163.934 102.918 163.907 101.99 163.576C102.195 162.899 102.412 162.356 102.641 161.948C103.639 162.382 104.521 162.504 105.287 162.314C105.483 162.265 105.656 162.206 105.803 162.136C106.011 161.821 106.143 161.403 106.201 160.883C106.259 160.364 106.216 159.814 106.073 159.234ZM94.9428 157.021C96.1716 156.877 97.1833 157.123 97.9779 157.76C98.7619 158.398 99.223 159.305 99.3614 160.48C99.4999 161.656 99.2105 162.711 98.4933 163.644C97.7773 164.587 96.789 165.133 95.5284 165.281C94.2572 165.431 93.2461 165.19 92.4951 164.559C91.7349 163.94 91.2849 163.037 91.1452 161.85C91.0056 160.664 91.2937 159.599 92.0097 158.655C92.7256 157.712 93.7033 157.167 94.9428 157.021ZM93.3867 161.184C93.5076 162.211 93.7501 162.994 94.114 163.531C94.4792 164.079 95.0326 164.309 95.7742 164.221C96.2509 164.165 96.6079 164.005 96.8453 163.741C96.9862 163.477 97.0808 163.096 97.1294 162.596C97.178 162.096 97.1755 161.618 97.1219 161.163C96.8613 158.949 96.0265 157.925 94.6176 158.091C94.1938 158.14 93.8626 158.292 93.624 158.546C93.4726 158.811 93.3838 159.197 93.3576 159.705C93.3221 160.225 93.3318 160.718 93.3867 161.184ZM83.2846 165.543C83.2994 165.287 83.1274 164.476 82.7685 163.109L81.9569 160.241L80.6719 163.612C80.4469 164.176 80.3193 164.719 80.2891 165.241L80.278 165.433L77.9938 165.3L78.0141 164.949C78.3347 164.764 78.6684 164.26 79.0153 163.436L81.1331 158.414L81.4048 157.597L83.3573 157.646L83.5912 158.589L85.1932 163.858C85.2919 164.184 85.4287 164.497 85.6037 164.795C85.7787 165.094 85.9286 165.274 86.0533 165.334L86.033 165.686L83.2735 165.734L83.2846 165.543ZM72.5821 159.755C72.9363 159.958 73.3445 160.1 73.8068 160.181C74.2585 160.26 74.62 160.237 74.8912 160.112C75.0838 159.94 75.2087 159.691 75.2659 159.365C75.4098 158.546 75.1246 158.073 74.4102 157.948C73.8218 157.844 73.2909 158 72.8173 158.415L72.5821 159.755ZM75.297 156.69C75.9589 156.806 76.5069 157.108 76.9411 157.596C77.3753 158.084 77.526 158.706 77.3931 159.463C77.1367 160.923 75.9421 161.466 73.8094 161.091L72.4179 160.782L72.2491 161.743C72.1532 162.29 72.2123 162.755 72.4264 163.139C72.6405 163.523 73.0313 163.765 73.5986 163.865C73.7246 163.887 73.8995 163.847 74.1231 163.746C74.3448 163.654 74.536 163.553 74.6965 163.44C75.1992 163.106 75.605 162.831 75.9137 162.614C76.3302 163.326 76.5041 164.001 76.4354 164.639C75.0168 164.823 73.8453 164.834 72.9208 164.672C71.9963 164.509 71.2619 164.158 70.7177 163.619C70.1735 163.079 69.9826 162.347 70.1449 161.422L70.5794 158.948C70.6624 158.476 70.6629 158.01 70.581 157.552C70.499 157.093 70.3554 156.77 70.1501 156.582L70.1795 156.23L72.516 156.153C72.6288 156.498 72.7089 156.967 72.7563 157.56C73.0811 157.314 73.3405 157.132 73.5344 157.014C73.7265 156.907 73.9869 156.812 74.3155 156.729C74.6337 156.644 74.9608 156.631 75.297 156.69ZM61.2397 161.677C60.4774 161.435 59.9637 161.008 59.6989 160.398C59.4308 159.798 59.439 159.051 59.7234 158.156L60.3392 156.22C60.6592 155.213 60.7798 154.306 60.7011 153.497L60.8078 153.162L63.4914 154.015L63.3847 154.351C63.06 154.773 62.7554 155.432 62.471 156.327L61.8649 158.233C61.6774 158.822 61.6112 159.277 61.6663 159.596C61.7181 159.926 61.9778 160.166 62.4454 160.314C62.913 160.463 63.5755 160.439 64.433 160.241L65.2281 157.741C65.5675 156.673 65.69 155.778 65.5956 155.054L65.7023 154.718L68.3707 155.567L68.264 155.902C67.9263 156.366 67.6104 157.06 67.3163 157.985L66.6666 160.028C66.282 161.238 66.3461 162.092 66.8591 162.591L66.7524 162.926L64.132 162.613L64.0564 162.27C64.0526 162.001 64.1001 161.658 64.1989 161.241C63.548 161.493 63.0021 161.661 62.5614 161.745C62.1072 161.835 61.6667 161.813 61.2397 161.677ZM48.5782 159.746L46.1749 158.438C45.0765 157.823 44.3221 157.205 43.9116 156.585C43.5011 155.964 43.5042 155.281 43.9209 154.536C44.2021 154.034 44.5746 153.674 45.0384 153.457C45.4929 153.234 45.963 153.137 46.4488 153.164C46.0552 152.797 45.75 152.327 45.5331 151.753C45.2689 151.068 45.3529 150.339 45.7852 149.566C46.2123 148.803 46.7495 148.29 47.3968 148.029C48.044 147.768 48.7255 147.697 49.441 147.816C50.1472 147.93 50.9472 148.237 51.8408 148.737C53.2721 149.587 54.0064 150.022 54.0436 150.043L55.1763 150.64L54.9966 150.961C54.5552 151.313 54.0976 151.913 53.6236 152.76L50.7721 157.856C50.2616 158.769 49.9501 159.511 49.8376 160.084L49.6657 160.391C49.4155 160.226 49.053 160.011 48.5782 159.746ZM49.6365 154.086L50.1252 154.359C51.37 152.135 52.1035 150.791 52.3255 150.329C51.9844 150.064 51.7161 149.878 51.5207 149.768C50.8132 149.372 50.1386 149.245 49.4969 149.388C48.8458 149.524 48.3406 149.914 47.9812 150.556C47.2417 151.878 47.7934 153.055 49.6365 154.086ZM46.0526 155.216C45.7401 155.774 45.6583 156.248 45.8074 156.637C45.9564 157.026 46.287 157.364 46.7989 157.65C47.3016 157.931 47.6818 158.126 47.9394 158.233C48.0216 158.108 48.5914 157.101 49.6487 155.211L48.6992 154.68C47.5077 154.013 46.6255 154.192 46.0526 155.216ZM43.4163 143.007C44.1526 143.572 44.6018 144.353 44.7638 145.351C44.9258 146.349 44.6498 147.314 43.9357 148.245C43.2151 149.184 42.2764 149.768 41.1198 149.997C39.9566 150.234 38.8841 149.976 37.9024 149.223C37.0729 148.587 36.6596 147.846 36.6623 147.001C36.665 146.156 37.0267 145.264 37.7473 144.325L38.6095 144.2L42.0881 146.868C42.547 146.252 42.7465 145.659 42.6866 145.089C42.6181 144.512 42.3639 144.055 41.9237 143.717C41.4752 143.373 40.6238 143.09 39.3696 142.867L39.4222 142.141C39.6999 142.112 40.002 142.095 40.3285 142.09C40.6549 142.085 41.147 142.153 41.8047 142.295C42.4475 142.438 42.9847 142.676 43.4163 143.007ZM38.8176 148.634C39.1307 148.874 39.4291 149.002 39.7127 149.018C40.0104 148.911 40.3304 148.712 40.6728 148.424C41.0151 148.135 41.2944 147.859 41.5106 147.595L39.1915 146.017C38.2567 147.236 38.132 148.108 38.8176 148.634ZM36.9177 137.397C37.5837 138.043 37.9394 138.871 37.9849 139.882C38.0303 140.892 37.6445 141.818 36.8274 142.66C36.003 143.51 35.003 143.981 33.8277 144.074C32.6449 144.175 31.6095 143.795 30.7215 142.933C29.9712 142.205 29.6463 141.422 29.7468 140.583C29.8473 139.744 30.3098 138.9 31.1343 138.05L32.0052 138.026L35.1516 141.078C35.6787 140.52 35.9455 139.954 35.9519 139.38C35.9507 138.8 35.751 138.316 35.3529 137.93C34.9472 137.536 34.1343 137.156 32.9143 136.79L33.0506 136.075C33.3298 136.078 33.6318 136.096 33.9566 136.129C34.2815 136.162 34.7624 136.287 35.3993 136.503C36.0211 136.72 36.5273 137.018 36.9177 137.397ZM31.6986 142.454C31.9819 142.729 32.2634 142.891 32.5433 142.94C32.8515 142.867 33.1923 142.707 33.5657 142.46C33.9391 142.213 34.2485 141.971 34.4939 141.733L32.3729 139.898C31.3033 141.001 31.0785 141.853 31.6986 142.454ZM31.1985 131.581L32.8112 133.61L32.5356 133.829C32.0202 134.02 31.3617 134.435 30.5601 135.072L25.6373 138.984C24.9191 139.555 24.5298 140.171 24.4694 140.832L24.1938 141.051L22.1129 139.332L22.269 138.963C22.5227 138.802 23.3469 138.168 24.7415 137.06L27.1715 135.128L24.2503 134.384C23.9474 134.312 23.7166 134.338 23.5579 134.464L21.995 132.498L22.2706 132.279C22.5645 132.563 23.1593 132.806 24.0549 133.007L26.8739 133.648L27.4996 129.472C27.5354 129.226 27.554 128.863 27.5556 128.385C27.5421 127.906 27.48 127.553 27.3691 127.328L27.6446 127.109L29.5361 129.489C29.3774 129.615 29.2767 129.831 29.2341 130.137C29.1377 130.582 28.9137 131.877 28.5619 134.023L29.1256 133.575C30.0358 132.852 30.6349 132.26 30.9229 131.8L31.1985 131.581ZM23.142 117.649C23.529 118.433 23.744 119.243 23.7873 120.078C23.84 120.908 23.7379 121.714 23.4809 122.495C23.2096 123.271 22.8027 123.977 22.2602 124.614C21.713 125.24 21.0472 125.747 20.2628 126.134C19.4688 126.526 18.6615 126.746 17.8407 126.794C17.0057 126.837 16.2025 126.728 15.4311 126.466C14.6454 126.199 13.9392 125.793 13.3124 125.245C12.6761 124.703 12.1645 124.039 11.7775 123.255C11.3859 122.461 11.1708 121.651 11.1323 120.826C11.0795 119.996 11.1888 119.192 11.4601 118.416C11.7171 117.635 12.1192 116.931 12.6664 116.305C13.1993 115.673 13.8627 115.161 14.6567 114.77C15.4411 114.383 16.2509 114.168 17.0859 114.124C17.9162 114.072 18.7242 114.179 19.5099 114.445C20.2813 114.707 20.9804 115.111 21.6071 115.659C22.2387 116.192 22.7503 116.855 23.142 117.649ZM6.76668 107.64L6.12411 104.981C5.84285 103.754 5.79468 102.78 5.9796 102.059C6.16453 101.338 6.67287 100.882 7.50462 100.692C8.06606 100.563 8.58288 100.598 9.0551 100.796C9.52494 100.984 9.91269 101.267 10.2184 101.646C10.2263 101.107 10.3702 100.566 10.65 100.02C10.9812 99.364 11.5782 98.9372 12.4412 98.7393C13.2937 98.5439 14.034 98.5985 14.6619 98.9032C15.2899 99.2079 15.7997 99.6656 16.1914 100.276C16.5807 100.876 16.8898 101.676 17.1186 102.674C17.4488 104.305 17.6187 105.142 17.6282 105.183L17.9455 106.424L17.5868 106.506C17.0296 106.415 16.278 106.478 15.3319 106.695L9.63957 108C8.62067 108.233 7.86116 108.5 7.36104 108.801L7.01794 108.88C6.97199 108.584 6.88824 108.171 6.76668 107.64ZM11.6736 104.628L11.7987 105.174C14.2836 104.604 15.7719 104.246 16.2639 104.101C16.2309 103.671 16.1894 103.346 16.1393 103.128C15.9582 102.338 15.5996 101.752 15.0637 101.372C14.5254 100.981 13.8976 100.868 13.1802 101.032C11.7038 101.371 11.2016 102.569 11.6736 104.628ZM8.43111 102.728C7.8073 102.871 7.40118 103.129 7.21276 103.5C7.02434 103.872 6.99568 104.343 7.12678 104.915C7.25549 105.476 7.36643 105.889 7.45959 106.152C7.60753 106.129 8.73679 105.876 10.8474 105.392L10.6042 104.331C10.2992 103 9.57478 102.466 8.43111 102.728ZM15.3424 92.7092L15.6211 95.4953L15.2708 95.5304C14.6797 95.4073 13.9595 95.3882 13.1104 95.4732L10.7383 95.7105C10.2713 95.7572 9.82921 95.8926 9.4121 96.1165C8.98331 96.331 8.71214 96.5671 8.59859 96.825L8.24834 96.8601L7.49837 94.6679L7.70533 94.4863C7.79448 94.4131 8.00251 94.2958 8.3294 94.1345C7.68724 93.5019 7.32846 92.8089 7.25307 92.0553C7.2159 91.6838 7.25568 91.3314 7.37242 90.9982C7.42549 90.9929 7.47325 90.9881 7.5157 90.9838C8.18436 90.9169 8.8663 90.9827 9.56151 91.1811C9.22508 91.783 9.08926 92.4076 9.15403 93.055C9.17421 93.2567 9.23047 93.4976 9.32283 93.7778L12.4592 93.464C13.4781 93.3621 14.3224 93.1222 14.9921 92.7443L15.3424 92.7092ZM11.9587 84.8981C11.8162 85.2807 11.7427 85.7066 11.738 86.1759C11.7335 86.6346 11.8153 86.9874 11.9836 87.2344C12.1846 87.3964 12.4505 87.479 12.7812 87.4823C13.6131 87.4905 14.0327 87.132 14.0399 86.4067C14.0458 85.8094 13.8053 85.311 13.3186 84.9115L11.9587 84.8981ZM15.4253 87.0764C15.4187 87.7484 15.2101 88.3384 14.7998 88.8463C14.3894 89.3543 13.8002 89.6045 13.0323 89.5969C11.5497 89.5822 10.8191 88.4923 10.8405 86.3271L10.9186 84.9038L9.9426 84.8941C9.38796 84.8886 8.93861 85.0229 8.59456 85.2968C8.2505 85.5708 8.07562 85.9957 8.06993 86.5717C8.06866 86.6997 8.13636 86.8657 8.27302 87.0697C8.39901 87.2737 8.53065 87.4456 8.66794 87.5857C9.07959 88.0271 9.41743 88.3824 9.68145 88.6517C9.04687 89.1788 8.40939 89.4605 7.769 89.4969C7.35585 88.1274 7.15391 86.9733 7.16319 86.0347C7.17247 85.0961 7.39888 84.3143 7.84241 83.6893C8.28594 83.0643 8.97702 82.7565 9.91564 82.7658L12.4275 82.7906C12.9075 82.7953 13.3669 82.7199 13.8058 82.5642C14.2447 82.4085 14.54 82.2141 14.6916 81.9809L15.0439 81.9524L15.5013 84.245C15.1796 84.4125 14.7301 84.5681 14.1526 84.7117C14.4485 84.992 14.6703 85.2182 14.8179 85.3903C14.9549 85.5624 15.0912 85.8037 15.2268 86.1144C15.3625 86.4144 15.4287 86.7351 15.4253 87.0764ZM8.18099 74.0492C8.29255 73.257 8.62704 72.6793 9.18446 72.3162C9.73132 71.9516 10.4695 71.8347 11.399 71.9656L13.4111 72.2489C14.4568 72.3962 15.3717 72.3635 16.1557 72.1507L16.5042 72.1998L16.1115 74.9883L15.763 74.9392C15.2918 74.6897 14.5915 74.4995 13.662 74.3686L11.6815 74.0897C11.0689 74.0035 10.6096 74.0142 10.3036 74.1219C9.98701 74.2281 9.79451 74.5242 9.72609 75.01C9.65767 75.4959 9.79246 76.1451 10.1305 76.9575L12.7288 77.3234C13.8379 77.4796 14.7414 77.4506 15.4394 77.2365L15.788 77.2856L15.3975 80.0583L15.049 80.0092C14.5356 79.7537 13.7983 79.5584 12.8371 79.423L10.714 79.124C9.45711 78.947 8.62558 79.1531 8.21946 79.7422L7.8709 79.6931L7.74121 77.0572L8.06678 76.9254C8.33218 76.8766 8.67836 76.8661 9.10532 76.8939C8.74812 76.2942 8.49142 75.7841 8.3352 75.3635C8.16992 74.9309 8.11851 74.4928 8.18099 74.0492ZM13.6499 67.3841C15.4469 67.8895 16.4926 67.6185 16.7872 66.5711C16.9951 65.8318 16.9548 64.7734 16.6663 63.3958L17.4105 63.173C17.6749 63.6906 17.8966 64.3402 18.0757 65.1218C18.2576 65.8932 18.2822 66.5151 18.1493 66.9875C17.823 68.1478 17.2103 68.9672 16.3112 69.4456C15.4047 69.9109 14.3713 69.9804 13.211 69.6541C12.0404 69.3248 11.1899 68.6258 10.6594 67.557C10.1187 66.4852 10.0029 65.4 10.3119 64.3013C10.6209 63.2026 11.1484 62.3315 11.8944 61.6881C12.3816 62.2019 12.7461 62.659 12.988 63.0594C12.1175 63.7121 11.5754 64.4184 11.3617 65.1782C11.3068 65.3733 11.2731 65.5522 11.2606 65.7149C11.4319 66.0512 11.7292 66.373 12.1525 66.6804C12.5757 66.9878 13.0749 67.2224 13.6499 67.3841ZM21.091 58.8114C20.6052 59.9494 19.8884 60.7046 18.9407 61.077C17.9972 61.4396 16.9809 61.3885 15.892 60.9236C14.8031 60.4587 14.0325 59.6831 13.58 58.5968C13.1177 57.5064 13.1358 56.3775 13.6342 55.2101C14.1368 54.0329 14.8487 53.2756 15.7698 52.9382C16.6854 52.5868 17.6925 52.6457 18.7912 53.1148C19.8899 53.5839 20.6704 54.3637 21.1327 55.4541C21.595 56.5445 21.5811 57.6636 21.091 58.8114ZM18.2543 55.3908C17.3028 54.9845 16.5035 54.8056 15.8565 54.8541C15.1997 54.8984 14.7247 55.2639 14.4315 55.9506C14.243 56.3921 14.2043 56.7815 14.3154 57.1189C14.474 57.3722 14.758 57.6442 15.1674 57.935C15.5767 58.2257 15.9923 58.4612 16.4142 58.6413C18.4644 59.5167 19.7681 59.302 20.3252 57.9973C20.4927 57.6049 20.5258 57.2421 20.4245 56.9089C20.2701 56.6458 19.9791 56.3766 19.5516 56.1012C19.1184 55.8119 18.686 55.5751 18.2543 55.3908ZM19.485 44.4706C19.6996 44.6102 20.4894 44.863 21.8546 45.2291L24.7474 45.9462L22.4567 43.1586C22.0785 42.6836 21.6703 42.3037 21.2322 42.0187L21.0712 41.9141L22.3186 39.996L22.6137 40.1879C22.6149 40.5577 22.8874 41.0975 23.431 41.8073L26.7421 46.1364L27.3175 46.7778L26.307 48.4491L25.372 48.1846L20.0015 46.9632C19.6693 46.8872 19.3301 46.8511 18.984 46.855C18.6379 46.859 18.4076 46.9 18.2931 46.9783L17.998 46.7864L19.324 44.3659L19.485 44.4706ZM29.8337 38.0491C29.4812 38.2551 29.1547 38.5383 28.854 38.8987C28.5602 39.2509 28.4003 39.5759 28.3742 39.8736C28.4273 40.1263 28.5808 40.3586 28.8347 40.5704C29.4736 41.1033 30.0254 41.0913 30.49 40.5343C30.8727 40.0757 31.002 39.5376 30.878 38.9203L29.8337 38.0491ZM31.1387 41.9298C30.7082 42.4458 30.1734 42.7706 29.5342 42.9041C28.8949 43.0376 28.2805 42.8584 27.6907 42.3664C26.5522 41.4166 26.6764 40.1104 28.0635 38.4476L29.0248 37.3952L28.2754 36.77C27.8494 36.4147 27.4166 36.2342 26.9768 36.2285C26.5371 36.2228 26.1327 36.4411 25.7637 36.8834C25.6817 36.9817 25.6291 37.1531 25.6057 37.3975C25.5742 37.6351 25.5673 37.8516 25.5849 38.0469C25.6242 38.6492 25.6608 39.1382 25.6948 39.5138C24.8699 39.5202 24.198 39.3348 23.6793 38.9576C24.2262 37.6358 24.8003 36.6145 25.4016 35.8937C26.0029 35.1729 26.673 34.711 27.412 34.5079C28.151 34.3048 28.8809 34.5038 29.6016 35.1051L31.5306 36.7143C31.8992 37.0217 32.3026 37.2541 32.741 37.4114C33.1793 37.5687 33.5309 37.605 33.7959 37.5205L34.0867 37.7214L32.9897 39.7858C32.6346 39.7119 32.1881 39.5478 31.6502 39.2935C31.7018 39.6978 31.7304 40.0133 31.7357 40.24C31.7329 40.4599 31.6856 40.733 31.5939 41.0594C31.5091 41.3775 31.3574 41.6677 31.1387 41.9298ZM33.7968 27.258C34.3858 26.7165 35.0108 26.4823 35.6721 26.5554C36.3261 26.6206 36.9708 26.9987 37.6061 27.6897L38.9814 29.1856C39.6961 29.9629 40.4239 30.5182 41.1649 30.8512L41.4031 31.1104L39.3301 33.0163L39.0919 32.7572C38.8861 32.2654 38.4655 31.674 37.8302 30.983L36.4765 29.5107C36.0578 29.0553 35.696 28.7721 35.3912 28.6611C35.0791 28.5423 34.7425 28.649 34.3813 28.9811C34.02 29.3132 33.7123 29.9004 33.458 30.7428L35.234 32.6744C35.992 33.4989 36.7087 34.0499 37.384 34.3274L37.6222 34.5865L35.561 36.4816L35.3228 36.2225C35.0881 35.6993 34.6423 35.0804 33.9853 34.3658L32.5342 32.7875C31.6751 31.8531 30.9017 31.4847 30.2139 31.6823L29.9757 31.4232L31.5481 29.3037L31.8834 29.4084C32.1195 29.5391 32.3937 29.7507 32.706 30.0431C32.8105 29.353 32.9358 28.7958 33.082 28.3717C33.2288 27.9324 33.467 27.5612 33.7968 27.258ZM41.7511 17.2255L44.0788 15.7872C45.1572 15.1382 46.0677 14.7893 46.8103 14.7407C47.553 14.6922 48.1443 15.0334 48.5843 15.7645C48.8814 16.2581 49.0092 16.76 48.9678 17.2705C48.9356 17.7754 48.7871 18.232 48.5224 18.6403C49.0363 18.4805 49.596 18.4486 50.2016 18.5447C50.928 18.6553 51.5195 19.0899 51.976 19.8484C52.4271 20.5978 52.6055 21.3183 52.5113 22.0099C52.4172 22.7015 52.1409 23.3285 51.6825 23.8907C51.2333 24.4474 50.57 24.9898 49.6926 25.5179C48.2449 26.3394 47.5028 26.7612 47.4663 26.7832L46.3861 27.4707L46.1963 27.1554C46.1096 26.5975 45.8159 25.9028 45.3154 25.0711L42.3038 20.0675C41.7648 19.1719 41.2745 18.5332 40.8331 18.1515L40.6516 17.8499C40.9185 17.7142 41.285 17.5061 41.7511 17.2255ZM46.1411 20.9513L45.6613 21.2401C46.9759 23.4243 47.779 24.7275 48.0704 25.1497C48.469 24.9845 48.7642 24.8441 48.9562 24.7286C49.6507 24.3106 50.0954 23.7877 50.2903 23.16C50.4943 22.5267 50.4066 21.8948 50.027 21.2642C49.2459 19.9665 47.9506 19.8622 46.1411 20.9513ZM46.9373 17.2788C46.6073 16.7304 46.2364 16.4245 45.8247 16.3611C45.413 16.2976 44.9559 16.4171 44.4532 16.7197C43.9597 17.0167 43.6024 17.2504 43.3813 17.4209C43.4492 17.5543 44.0414 18.5486 45.158 20.4039L46.0902 19.8428C47.26 19.1387 47.5424 18.284 46.9373 17.2788ZM58.8427 21.0349C57.9879 21.3962 57.0866 21.4008 56.1387 21.0488C55.1908 20.6967 54.4885 19.9803 54.0317 18.8996C53.5707 17.809 53.5264 16.7044 53.899 15.5857C54.2673 14.4573 55.0214 13.6521 56.1611 13.1704C57.1239 12.7634 57.9719 12.7697 58.7052 13.1893C59.4384 13.609 60.0355 14.3641 60.4965 15.4546L60.1795 16.2661L56.1414 17.973C56.4502 18.6763 56.8674 19.1426 57.3929 19.3722C57.9282 19.5975 58.4513 19.6022 58.9622 19.3863C59.4829 19.1662 60.1498 18.5658 60.9629 17.5852L61.568 17.9895C61.4561 18.2452 61.3217 18.5163 61.1648 18.8026C61.0079 19.089 60.7055 19.4832 60.2576 19.9852C59.8154 20.4732 59.3437 20.8231 58.8427 21.0349ZM56.2208 14.2569C55.8573 14.4105 55.5986 14.6067 55.4447 14.8455C55.3913 15.1576 55.4056 15.5337 55.4874 15.9739C55.5693 16.4141 55.6717 16.7935 55.7948 17.112L58.3116 15.8745C57.7135 14.4597 57.0166 13.9205 56.2208 14.2569ZM66.9349 18.1808C66.0425 18.4353 65.1473 18.3302 64.2494 17.8653C63.3514 17.4005 62.7415 16.6039 62.4197 15.4755C62.0949 14.337 62.1855 13.2352 62.6915 12.1702C63.1945 11.095 64.0409 10.3877 65.2308 10.0483C66.2361 9.76154 67.077 9.87106 67.7537 10.3768C68.4304 10.8826 68.9311 11.7048 69.2559 12.8434L68.8424 13.6102L64.6265 14.8128C64.8475 15.5484 65.2047 16.0621 65.6984 16.3539C66.2023 16.6427 66.7209 16.7111 67.2543 16.559C67.798 16.4039 68.533 15.8892 69.4594 15.0149L70.0108 15.4898C69.8686 15.7301 69.7021 15.9827 69.5116 16.2479C69.321 16.513 68.9728 16.8674 68.4672 17.3111C67.9688 17.7417 67.4581 18.0315 66.9349 18.1808ZM65.1578 11.1339C64.7783 11.2422 64.4976 11.4054 64.3159 11.6237C64.2249 11.9269 64.1932 12.302 64.2209 12.7489C64.2485 13.1958 64.304 13.5848 64.3874 13.916L67.0361 12.9941C66.6148 11.517 65.9887 10.8969 65.1578 11.1339ZM74.8273 16.1171L72.2652 16.5093L72.2119 16.1614C72.3015 15.6189 72.2688 14.8416 72.1139 13.8294L71.1622 7.61379C71.0234 6.70702 70.6821 6.06326 70.1382 5.68252L70.0849 5.33458L72.6097 4.38149L72.8528 4.70038C72.8664 5.00045 73.0079 6.03089 73.2775 7.79171L73.7473 10.86L75.8436 8.69375C76.0571 8.46683 76.1484 8.25321 76.1178 8.05288L78.6008 7.67271L78.6541 8.02066C78.2615 8.13472 77.7556 8.53051 77.1363 9.20803L75.1799 11.3366L78.4941 13.9532C78.6902 14.1066 78.9954 14.3027 79.4097 14.5414C79.8328 14.768 80.1697 14.8891 80.4203 14.9047L80.4735 15.2526L77.4686 15.7127C77.4379 15.5123 77.3002 15.3176 77.0554 15.1285C76.7174 14.8241 75.7043 13.9865 74.0161 12.6155L74.125 13.3272C74.301 14.4765 74.5173 15.2904 74.7741 15.7691L74.8273 16.1171ZM90.9194 16.0489C90.0463 15.9953 89.2367 15.78 88.4904 15.4029C87.7434 15.0365 87.0948 14.5479 86.5445 13.937C86.0055 13.3162 85.5945 12.6123 85.3115 11.8255C85.0391 11.0394 84.9297 10.2098 84.9833 9.33676C85.0375 8.45309 85.2475 7.6431 85.6133 6.90678C85.9904 6.16048 86.484 5.5175 87.0942 4.97786C87.7157 4.42822 88.4195 4.01722 89.2057 3.74486C89.9925 3.46185 90.8224 3.34713 91.6954 3.4007C92.5791 3.45492 93.3888 3.67024 94.1244 4.04667C94.8714 4.4131 95.5144 4.90674 96.0534 5.52758C96.6037 6.13843 97.015 6.83694 97.2873 7.62309C97.571 8.39925 97.6857 9.22917 97.6315 10.1128C97.5779 10.9859 97.3626 11.7955 96.9855 12.5418C96.6191 13.2888 96.1251 13.9371 95.5036 14.4867C94.8934 15.0264 94.1953 15.4324 93.4091 15.7047C92.6329 15.9884 91.803 16.1031 90.9194 16.0489Z" fill="#959595"/>
<path d="M111.966 63.4246C113.345 64.7988 113.345 67.0273 111.966 68.4015C110.587 69.7757 108.351 69.7757 106.972 68.4015L90.5307 52.0146L90.5307 129.481C90.5307 131.425 88.9499 133 87 133C85.0501 133 83.4693 131.425 83.4693 129.481L83.4693 52.0146L67.0277 68.4015C65.6488 69.7757 63.4129 69.7757 62.0341 68.4015C60.6553 67.0273 60.6553 64.7988 62.0341 63.4246L84.5037 41.0307C85.8825 39.6564 88.1175 39.6564 89.4963 41.0307L111.966 63.4246Z" fill="#959595"/>
</svg>
