<svg width="173" height="173" viewBox="0 0 173 173" fill="none" xmlns="http://www.w3.org/2000/svg">
<path d="M24.4525 32.1243L26.3005 30.1066C27.1614 29.1884 27.9426 28.6048 28.6439 28.3558C29.3453 28.1069 30.0072 28.2742 30.6297 28.8579C31.0499 29.2519 31.3096 29.7001 31.4087 30.2025C31.5152 30.6971 31.4967 31.1769 31.3532 31.6419C31.8041 31.3481 32.334 31.1651 32.9429 31.0926C33.672 31.0013 34.3594 31.2583 35.0052 31.8639C35.6433 32.4622 36.0112 33.1069 36.1089 33.798C36.2066 34.4891 36.1115 35.1676 35.8235 35.8334C35.5428 36.4914 35.0523 37.1939 34.3519 37.9409C33.1826 39.1256 32.5833 39.7335 32.5542 39.7646L31.702 40.7203L31.4335 40.4685C31.1982 39.9554 30.7265 39.3669 30.0184 38.703L25.7582 34.7084C24.9956 33.9934 24.35 33.5124 23.8213 33.2653L23.5646 33.0245C23.7844 32.8212 24.0804 32.5212 24.4525 32.1243ZM29.6911 34.5139L29.3081 34.9225C31.1678 36.6662 32.2953 37.7015 32.6907 38.0283C33.0292 37.7609 33.2751 37.5454 33.4283 37.382C33.9828 36.7906 34.2683 36.1664 34.2849 35.5094C34.3088 34.8445 34.0523 34.2604 33.5154 33.757C32.4105 32.7209 31.1357 32.9733 29.6911 34.5139ZM29.4572 30.7634C28.9903 30.3256 28.5502 30.1323 28.1368 30.1833C27.7234 30.2343 27.316 30.4738 26.9147 30.9018C26.5208 31.322 26.2406 31.6442 26.0742 31.8684C26.1759 31.9783 27.0165 32.7738 28.5961 34.2549L29.3403 33.4612C30.2741 32.4652 30.3131 31.5659 29.4572 30.7634ZM41.6356 30.9116L39.4752 32.6929L39.2513 32.4213C39.0248 31.8615 38.6401 31.2524 38.0972 30.594L36.5806 28.7546C36.2821 28.3925 35.9237 28.1004 35.5056 27.8784C35.0889 27.6413 34.7418 27.5473 34.4643 27.5964L34.2404 27.3248L35.6451 25.4822L35.9111 25.5532C36.0215 25.5866 36.2347 25.6942 36.5506 25.8762C36.7191 24.9907 37.0955 24.307 37.6799 23.8253C37.9679 23.5878 38.2829 23.4248 38.6248 23.3365C38.6587 23.3776 38.6892 23.4147 38.7164 23.4476C39.1439 23.9661 39.4685 24.5694 39.6903 25.2575C39.003 25.3126 38.4084 25.5472 37.9063 25.9611C37.75 26.09 37.581 26.2708 37.3996 26.5034L39.4047 28.9353C40.0562 29.7254 40.7251 30.2936 41.4117 30.64L41.6356 30.9116ZM46.2099 23.7389C45.8133 23.8357 45.4195 24.0139 45.0285 24.2735C44.6463 24.5271 44.4003 24.7929 44.2902 25.0708C44.269 25.3281 44.3498 25.5945 44.5327 25.87C44.9929 26.5632 45.5251 26.7092 46.1294 26.3081C46.6271 25.9777 46.9046 25.499 46.9621 24.8719L46.2099 23.7389ZM46.3527 27.8306C45.7928 28.2023 45.1875 28.3608 44.5368 28.3063C43.886 28.2517 43.3483 27.9045 42.9235 27.2647C42.1036 26.0294 42.5956 24.813 44.3996 23.6154L45.6214 22.8812L45.0817 22.0681C44.7749 21.6059 44.4116 21.3094 43.9918 21.1784C43.5719 21.0474 43.1221 21.1412 42.6422 21.4597C42.5355 21.5305 42.4361 21.6797 42.344 21.9073C42.2459 22.126 42.1775 22.3315 42.1386 22.5237C42.0043 23.1122 41.8998 23.5912 41.8251 23.9609C41.0327 23.7315 40.4418 23.362 40.0523 22.8524C40.9539 21.7418 41.7957 20.927 42.5777 20.4079C43.3598 19.8887 44.1339 19.6373 44.9001 19.6536C45.6663 19.67 46.3089 20.0691 46.8281 20.8512L48.2173 22.9441C48.4828 23.344 48.8031 23.6819 49.1783 23.9578C49.5534 24.2336 49.8801 24.3689 50.1582 24.3635L50.3795 24.6391L48.7387 26.3044C48.4195 26.1322 48.0385 25.8474 47.5955 25.4501C47.5296 25.8523 47.4669 26.1628 47.4073 26.3816C47.3418 26.5915 47.2185 26.8398 47.0375 27.1264C46.8653 27.4071 46.6371 27.6418 46.3527 27.8306ZM53.1295 14.5378C53.8499 14.1899 54.516 14.1466 55.1278 14.4079C55.735 14.6596 56.2427 15.2081 56.6508 16.0534L57.5344 17.8833C57.9936 18.8342 58.5296 19.5763 59.1424 20.1096L59.2954 20.4265L56.7596 21.651L56.6065 21.334C56.5518 20.8037 56.3204 20.1159 55.9123 19.2706L55.0426 17.4696C54.7736 16.9125 54.5093 16.5367 54.2496 16.3423C53.9852 16.1382 53.6321 16.1429 53.1903 16.3563C52.7484 16.5696 52.2839 17.0427 51.7967 17.7754L52.9376 20.1383C53.4246 21.1469 53.9512 21.8817 54.5173 22.3428L54.6704 22.6598L52.1489 23.8773L51.9959 23.5603C51.9226 22.9915 51.675 22.2701 51.2529 21.396L50.3207 19.4653C49.7687 18.3223 49.135 17.7458 48.4195 17.7359L48.2665 17.4189L50.385 15.8452L50.6756 16.0424C50.8638 16.2359 51.065 16.5177 51.2794 16.888C51.5791 16.2577 51.8603 15.7606 52.1229 15.3969C52.3905 15.019 52.7261 14.7326 53.1295 14.5378ZM61.701 15.3733C62.2837 17.1467 63.0919 17.8636 64.1255 17.524C64.8551 17.2842 65.7112 16.6605 66.6937 15.6528L67.2937 16.1461C67.0116 16.6543 66.596 17.2006 66.047 17.7852C65.5082 18.3664 65.0057 18.7336 64.5396 18.8868C63.3945 19.2631 62.3727 19.2114 61.4741 18.732C60.5823 18.239 59.9483 17.42 59.5721 16.2749C59.1925 15.1197 59.2984 14.0239 59.8898 12.9875C60.4778 11.941 61.314 11.2396 62.3983 10.8833C63.4826 10.527 64.4998 10.4791 65.4499 10.7395C65.2951 11.4304 65.119 11.9879 64.9216 12.412C63.8943 12.0534 63.0057 11.9974 62.2558 12.2437C62.0633 12.307 61.896 12.3788 61.754 12.4592C61.5704 12.7889 61.4691 13.2152 61.45 13.738C61.4309 14.2607 61.5145 14.8058 61.701 15.3733ZM72.9643 16.7591C71.7493 16.9931 70.7223 16.8215 69.8834 16.2443C69.055 15.6652 68.5288 14.7943 68.3049 13.6317C68.0811 12.469 68.2927 11.3963 68.9399 10.4136C69.5851 9.42032 70.5309 8.80371 71.7774 8.56371C73.0343 8.32169 74.0602 8.48805 74.8552 9.06276C75.6587 9.62499 76.1734 10.4927 76.3992 11.6658C76.6251 12.8389 76.4155 13.9221 75.7703 14.9153C75.1251 15.9085 74.1898 16.5231 72.9643 16.7591ZM74.2124 12.4942C74.0168 11.4782 73.7179 10.7156 73.3157 10.2065C72.9115 9.68686 72.3428 9.49764 71.6096 9.63882C71.1383 9.72957 70.7938 9.91538 70.5764 10.1962C70.4552 10.4694 70.3886 10.857 70.3766 11.359C70.3646 11.861 70.402 12.3371 70.4887 12.7875C70.9102 14.9767 71.8175 15.9371 73.2106 15.6689C73.6296 15.5882 73.9488 15.4127 74.1683 15.1423C74.3 14.8671 74.3603 14.4753 74.3493 13.9669C74.3468 13.446 74.3012 12.9551 74.2124 12.4942ZM83.9689 7.42856C83.9729 7.68453 84.2039 8.48107 84.6619 9.81816L85.6812 12.6188L86.716 9.16241C86.8991 8.58352 86.9866 8.03277 86.9786 7.51017L86.9756 7.31819L89.2633 7.28291L89.2687 7.63487C88.9626 7.84228 88.6667 8.36957 88.381 9.21675L86.6364 14.3803L86.4253 15.2156L84.4745 15.3097L84.1722 14.3863L82.1888 9.24823C82.0665 8.93008 81.9072 8.6285 81.7108 8.34349C81.5144 8.05849 81.3517 7.89031 81.2229 7.83895L81.2175 7.487L83.966 7.23659L83.9689 7.42856ZM95.0665 12.419C94.6984 12.2424 94.2808 12.1304 93.8139 12.0832C93.3576 12.037 92.9988 12.0865 92.7375 12.2316C92.5579 12.4171 92.4515 12.6744 92.4182 13.0033C92.3344 13.8311 92.6534 14.2815 93.375 14.3545C93.9693 14.4147 94.4875 14.2205 94.9295 13.7721L95.0665 12.419ZM92.5822 15.6734C91.9136 15.6058 91.345 15.3445 90.8764 14.8897C90.4078 14.4349 90.2122 13.8254 90.2895 13.0613C90.4388 11.5862 91.5906 10.9576 93.7449 11.1756L95.1552 11.3827L95.2535 10.4116C95.3093 9.85977 95.2165 9.40008 94.9749 9.03256C94.7333 8.66504 94.326 8.45229 93.753 8.3943C93.6256 8.38142 93.4541 8.43375 93.2385 8.55131C93.024 8.65826 92.8408 8.77373 92.6889 8.89774C92.2119 9.26759 91.8273 9.57176 91.5351 9.81022C91.0679 9.13039 90.8452 8.46996 90.8672 7.82891C92.2686 7.54187 93.4362 7.44559 94.3701 7.54009C95.304 7.63459 96.062 7.93107 96.6441 8.42954C97.2262 8.92801 97.47 9.64419 97.3755 10.5781L97.1226 13.0773C97.0743 13.5549 97.1077 14.0193 97.2229 14.4705C97.338 14.9217 97.5048 15.2334 97.7233 15.4056L97.7197 15.7591L95.395 16.0063C95.2574 15.6707 95.1433 15.2089 95.0527 14.6208C94.7467 14.89 94.5013 15.0903 94.3165 15.2217C94.1327 15.3425 93.88 15.4563 93.5583 15.5631C93.2472 15.671 92.9218 15.7078 92.5822 15.6734ZM106.234 9.66949C107.012 9.85517 107.556 10.2426 107.865 10.8317C108.176 11.4105 108.223 12.1564 108.005 13.0694L107.534 15.0459C107.289 16.0731 107.235 16.987 107.373 17.7875L107.291 18.1299L104.552 17.4763L104.634 17.1339C104.927 16.6884 105.182 16.0091 105.4 15.096L105.864 13.1507C106.008 12.5489 106.04 12.0906 105.962 11.7758C105.886 11.4506 105.609 11.2311 105.132 11.1172C104.655 11.0034 103.996 11.0764 103.155 11.3364L102.546 13.8887C102.286 14.9782 102.23 15.8804 102.377 16.5955L102.296 16.9379L99.572 16.288L99.6537 15.9456C99.9564 15.4585 100.22 14.7429 100.446 13.7988L100.943 11.7133C101.238 10.4787 101.111 9.63141 100.563 9.17161L100.644 8.82922L103.281 8.94836L103.381 9.28491C103.405 9.55372 103.383 9.89935 103.315 10.3218C103.946 10.0227 104.478 9.81514 104.911 9.69924C105.357 9.57543 105.798 9.56552 106.234 9.66949ZM119.033 10.6943L121.522 11.8303C122.661 12.3662 123.457 12.9294 123.91 13.5198C124.363 14.1103 124.408 14.7916 124.045 15.5637C123.799 16.0848 123.453 16.4701 123.006 16.7193C122.568 16.9731 122.106 17.1034 121.619 17.1102C122.038 17.4486 122.375 17.8962 122.632 18.4531C122.944 19.1185 122.911 19.8517 122.534 20.6528C122.162 21.4442 121.662 21.993 121.034 22.299C120.407 22.605 119.732 22.7237 119.01 22.655C118.298 22.5908 117.478 22.3408 116.552 21.9048C115.064 21.1576 114.301 20.775 114.263 20.7568L113.091 20.2408L113.247 19.9078C113.663 19.5257 114.077 18.8955 114.491 18.0173L116.977 12.7331C117.422 11.7872 117.681 11.0248 117.753 10.4457L117.903 10.1272C118.164 10.2737 118.541 10.4627 119.033 10.6943ZM118.375 16.4145L117.868 16.1761C116.783 18.4828 116.145 19.8746 115.956 20.3515C116.315 20.591 116.596 20.7585 116.799 20.8539C117.532 21.1991 118.214 21.2782 118.844 21.0914C119.484 20.9092 119.961 20.4851 120.274 19.8191C120.919 18.4486 120.286 17.3138 118.375 16.4145ZM121.871 15.0357C122.143 14.4566 122.191 13.9783 122.015 13.6008C121.839 13.2232 121.486 12.9096 120.955 12.6598C120.434 12.4145 120.041 12.2473 119.776 12.1582C119.703 12.2888 119.206 13.3337 118.284 15.2929L119.268 15.7562C120.504 16.3375 121.371 16.0974 121.871 15.0357ZM125.373 27.0087C124.596 26.5016 124.088 25.7566 123.851 24.7738C123.613 23.791 123.815 22.8082 124.456 21.8255C125.103 20.8339 125.994 20.1801 127.13 19.8641C128.272 19.5392 129.361 19.7148 130.397 20.3909C131.273 20.9621 131.741 21.6689 131.803 22.5115C131.865 23.3541 131.572 24.2712 130.925 25.2628L130.075 25.4532L126.403 23.0577C125.992 23.7067 125.839 24.3133 125.942 24.8773C126.054 25.4472 126.342 25.8837 126.807 26.1868C127.28 26.4957 128.151 26.7134 129.418 26.8399L129.421 27.5676C129.147 27.6177 128.847 27.6576 128.522 27.6875C128.196 27.7174 127.701 27.6868 127.034 27.5958C126.382 27.5016 125.828 27.3059 125.373 27.0087ZM129.53 21.0474C129.199 20.8317 128.892 20.7268 128.608 20.7326C128.319 20.8627 128.015 21.0846 127.696 21.3984C127.376 21.7122 127.119 22.0092 126.924 22.2892L129.356 23.6852C130.195 22.3988 130.253 21.5195 129.53 21.0474ZM132.254 32.134C131.546 31.5343 131.135 30.732 131.021 29.7273C130.908 28.7226 131.23 27.7725 131.988 26.8771C132.754 25.9735 133.719 25.4355 134.886 25.2631C136.059 25.0825 137.118 25.392 138.062 26.1916C138.86 26.8672 139.237 27.6268 139.193 28.4705C139.15 29.3142 138.745 30.1878 137.98 31.0914L137.113 31.1747L133.767 28.3416C133.279 28.9345 133.051 29.5173 133.084 30.0898C133.124 30.6692 133.356 31.1381 133.779 31.4966C134.211 31.8619 135.047 32.1861 136.289 32.469L136.202 33.1915C135.923 33.2071 135.621 33.2095 135.294 33.1987C134.968 33.1879 134.48 33.096 133.83 32.9228C133.194 32.7485 132.669 32.4855 132.254 32.134ZM137.119 26.7353C136.818 26.4802 136.526 26.3379 136.244 26.3084C135.941 26.4016 135.612 26.5841 135.256 26.8558C134.9 27.1275 134.608 27.3901 134.379 27.6437L136.619 29.3311C137.612 28.1589 137.779 27.2936 137.119 26.7353ZM138.373 37.5325L136.614 35.629L136.872 35.39C137.372 35.1606 137.998 34.6984 138.75 34.0034L143.367 29.7354C144.041 29.1128 144.383 28.4696 144.394 27.8058L144.653 27.5668L146.856 29.1255L146.728 29.5054C146.487 29.6846 145.712 30.3788 144.404 31.5878L142.125 33.6947L145.093 34.2191C145.401 34.269 145.629 34.2251 145.778 34.0876L147.483 35.9323L147.224 36.1712C146.91 35.9098 146.299 35.7121 145.391 35.5782L142.532 35.1486L142.219 39.3596C142.201 39.608 142.21 39.9707 142.244 40.4475C142.293 40.925 142.381 41.2719 142.508 41.4883L142.25 41.7272L140.187 39.4947C140.335 39.3572 140.42 39.134 140.439 38.8253C140.502 38.3749 140.629 37.0665 140.82 34.9001L140.292 35.3888C139.438 36.1779 138.884 36.8129 138.631 37.2935L138.373 37.5325ZM147.416 50.8407C146.974 50.0861 146.702 49.2938 146.599 48.4641C146.486 47.6397 146.53 46.8288 146.731 46.0314C146.946 45.2378 147.301 44.5042 147.796 43.8306C148.297 43.1663 148.925 42.6129 149.679 42.1707C150.443 41.7231 151.233 41.4459 152.048 41.339C152.878 41.236 153.687 41.2874 154.475 41.4931C155.278 41.7026 156.011 42.0578 156.676 42.5586C157.349 43.054 157.907 43.6791 158.349 44.4337C158.797 45.1975 159.07 45.9898 159.167 46.8103C159.28 47.6347 159.228 48.4437 159.013 49.2373C158.813 50.0347 158.462 50.7656 157.962 51.43C157.475 52.0982 156.85 52.6561 156.086 53.1037C155.332 53.5459 154.54 53.8185 153.71 53.9216C152.885 54.0338 152.072 53.9851 151.269 53.7756C150.481 53.5699 149.755 53.2166 149.09 52.7158C148.422 52.2296 147.864 51.6045 147.416 50.8407ZM164.468 59.6296L165.304 62.2351C165.674 63.4381 165.793 64.4058 165.662 65.1383C165.53 65.8708 165.056 66.3626 164.241 66.6136C163.69 66.7831 163.172 66.7863 162.687 66.6233C162.204 66.4704 161.797 66.2164 161.464 65.8612C161.496 66.3984 161.392 66.9493 161.153 67.514C160.871 68.1924 160.307 68.6618 159.46 68.9223C158.624 69.1797 157.882 69.1794 157.234 68.9214C156.585 68.6635 156.043 68.2444 155.608 67.6642C155.175 67.0941 154.809 66.3197 154.507 65.341C154.059 63.7381 153.828 62.9163 153.815 62.8755L153.408 61.6616L153.76 61.5533C154.322 61.6034 155.067 61.4857 155.995 61.2001L161.576 59.4818C162.576 59.1743 163.313 58.8522 163.79 58.5157L164.127 58.4122C164.194 58.7039 164.308 59.1097 164.468 59.6296ZM159.795 62.9935L159.63 62.4583C157.194 63.2083 155.735 63.674 155.255 63.8552C155.32 64.2818 155.385 64.6022 155.451 64.8163C155.689 65.591 156.09 66.1486 156.652 66.4889C157.218 66.8393 157.852 66.9063 158.555 66.6897C160.003 66.2441 160.416 65.012 159.795 62.9935ZM163.168 64.6505C163.779 64.4622 164.165 64.1759 164.326 63.7916C164.487 63.4073 164.481 62.9348 164.308 62.3741C164.139 61.8236 163.998 61.4205 163.886 61.1649C163.74 61.1986 162.632 61.534 160.563 62.1711L160.883 63.211C161.285 64.5159 162.046 64.9957 163.168 64.6505ZM156.998 75.1491L156.523 72.3897L156.869 72.33C157.468 72.411 158.188 72.3791 159.029 72.2343L161.378 71.8298C161.841 71.7502 162.272 71.584 162.672 71.3311C163.085 71.0869 163.338 70.8321 163.434 70.5668L163.78 70.5071L164.683 72.6408L164.49 72.8365C164.406 72.9159 164.207 73.0476 163.892 73.2316C164.578 73.8172 164.984 74.4831 165.113 75.2295C165.176 75.5974 165.161 75.9517 165.069 76.2924C165.016 76.3015 164.969 76.3096 164.927 76.3169C164.264 76.4309 163.58 76.4135 162.872 76.2647C163.165 75.6406 163.256 75.0079 163.146 74.3667C163.112 74.1669 163.038 73.9306 162.927 73.6576L159.82 74.1924C158.811 74.3661 157.986 74.6651 157.344 75.0894L156.998 75.1491ZM160.949 82.6835C161.062 82.2913 161.103 81.861 161.073 81.3926C161.043 80.935 160.934 80.5893 160.748 80.3557C160.535 80.2093 160.264 80.1469 159.934 80.1686C159.104 80.2231 158.713 80.6122 158.76 81.336C158.799 81.932 159.076 82.4109 159.592 82.7726L160.949 82.6835ZM157.328 80.7725C157.284 80.102 157.448 79.498 157.818 78.9605C158.189 78.4231 158.758 78.1292 159.524 78.0789C161.004 77.9818 161.815 79.0136 161.956 81.1743L161.986 82.5994L162.96 82.5355C163.513 82.4992 163.951 82.3315 164.273 82.0324C164.596 81.7333 164.738 81.2964 164.701 80.7216C164.692 80.5939 164.612 80.4335 164.461 80.2403C164.32 80.0465 164.175 79.8849 164.028 79.7556C163.584 79.3465 163.22 79.0176 162.937 78.7689C163.53 78.1955 164.144 77.8666 164.78 77.7821C165.295 79.1166 165.584 80.2521 165.645 81.1888C165.707 82.1254 165.54 82.9221 165.145 83.5787C164.749 84.2353 164.084 84.5943 163.147 84.6558L160.64 84.8203C160.161 84.8517 159.709 84.9616 159.283 85.1499C158.857 85.3382 158.577 85.5543 158.444 85.7983L158.094 85.8532L157.466 83.6016C157.774 83.4103 158.21 83.2213 158.775 83.0346C158.459 82.7774 158.221 82.5686 158.061 82.4081C157.911 82.2468 157.757 82.0164 157.599 81.7168C157.441 81.4279 157.35 81.1131 157.328 80.7725ZM165.498 93.2551C165.443 94.0532 165.149 94.653 164.619 95.0544C164.099 95.4565 163.371 95.625 162.435 95.5598L160.407 95.4185C159.354 95.3451 158.444 95.4421 157.677 95.7094L157.325 95.6849L157.521 92.8757L157.872 92.9002C158.36 93.1159 159.072 93.2564 160.008 93.3217L162.003 93.4607C162.621 93.5037 163.078 93.4607 163.376 93.3318C163.684 93.2036 163.855 92.8947 163.889 92.4053C163.923 91.9158 163.743 91.2777 163.349 90.4911L160.731 90.3087C159.614 90.2308 158.715 90.3232 158.034 90.5858L157.682 90.5613L157.877 87.7681L158.228 87.7926C158.758 88.0113 159.508 88.1544 160.476 88.2219L162.615 88.3709C163.881 88.4591 164.696 88.1951 165.06 87.5789L165.411 87.6034L165.725 90.2236L165.41 90.378C165.149 90.4454 164.804 90.4802 164.376 90.4824C164.775 91.0555 165.067 91.5463 165.252 91.9549C165.447 92.3748 165.529 92.8082 165.498 93.2551ZM160.523 100.279C158.694 99.9071 157.671 100.254 157.454 101.32C157.301 102.073 157.419 103.126 157.808 104.478L157.082 104.755C156.781 104.258 156.512 103.627 156.276 102.86C156.037 102.105 155.967 101.486 156.065 101.005C156.305 99.8241 156.856 98.9619 157.718 98.4187C158.587 97.888 159.613 97.7428 160.794 97.983C161.986 98.2253 162.885 98.8599 163.493 99.8869C164.111 100.916 164.306 101.99 164.079 103.108C163.851 104.227 163.389 105.134 162.692 105.831C162.169 105.354 161.772 104.925 161.501 104.543C162.321 103.828 162.81 103.084 162.967 102.311C163.008 102.112 163.028 101.931 163.029 101.768C162.833 101.445 162.513 101.146 162.068 100.871C161.624 100.595 161.108 100.398 160.523 100.279ZM153.736 109.377C154.136 108.206 154.794 107.399 155.712 106.958C156.626 106.526 157.643 106.501 158.763 106.884C159.884 107.267 160.71 107.983 161.242 109.033C161.784 110.086 161.85 111.213 161.439 112.414C161.025 113.625 160.372 114.434 159.478 114.838C158.591 115.257 157.583 115.273 156.452 114.887C155.322 114.5 154.485 113.781 153.943 112.728C153.401 111.675 153.332 110.558 153.736 109.377ZM156.818 112.577C157.798 112.912 158.608 113.031 159.25 112.934C159.901 112.841 160.348 112.442 160.589 111.735C160.744 111.281 160.754 110.89 160.618 110.561C160.441 110.32 160.138 110.07 159.708 109.811C159.278 109.551 158.846 109.347 158.412 109.199C156.303 108.478 155.018 108.789 154.56 110.132C154.422 110.535 154.416 110.9 154.541 111.224C154.715 111.475 155.025 111.722 155.472 111.965C155.925 112.221 156.374 112.425 156.818 112.577ZM156.366 123.587C156.142 123.462 155.337 123.265 153.949 122.994L151.014 122.479L153.492 125.101C153.902 125.549 154.336 125.9 154.793 126.154L154.96 126.247L153.849 128.247L153.541 128.076C153.514 127.707 153.205 127.187 152.614 126.517L149.011 122.427L148.392 121.827L149.285 120.09L150.236 120.289L155.678 121.136C156.015 121.189 156.356 121.201 156.701 121.173C157.046 121.146 157.272 121.089 157.381 121.003L157.689 121.174L156.534 123.68L156.366 123.587ZM146.515 130.712C146.851 130.481 147.156 130.174 147.429 129.793C147.696 129.42 147.831 129.084 147.836 128.785C147.764 128.537 147.594 128.317 147.325 128.124C146.648 127.64 146.099 127.692 145.677 128.282C145.329 128.768 145.24 129.314 145.409 129.92L146.515 130.712ZM144.927 126.938C145.318 126.392 145.828 126.029 146.455 125.848C147.083 125.668 147.709 125.801 148.333 126.249C149.539 127.112 149.511 128.424 148.25 130.184L147.369 131.305L148.163 131.873C148.614 132.196 149.059 132.344 149.498 132.317C149.937 132.29 150.324 132.043 150.659 131.575C150.734 131.471 150.774 131.296 150.779 131.05C150.793 130.811 150.784 130.595 150.752 130.401C150.668 129.803 150.596 129.318 150.534 128.946C151.356 128.879 152.04 129.014 152.585 129.352C152.137 130.711 151.64 131.772 151.093 132.535C150.547 133.298 149.913 133.808 149.191 134.065C148.469 134.322 147.726 134.178 146.963 133.631L144.921 132.169C144.53 131.889 144.111 131.687 143.662 131.563C143.213 131.438 142.86 131.428 142.602 131.532L142.297 131.353L143.239 129.213C143.599 129.26 144.056 129.391 144.611 129.605C144.53 129.206 144.478 128.893 144.456 128.668C144.443 128.448 144.47 128.172 144.537 127.84C144.598 127.516 144.728 127.216 144.927 126.938ZM143.338 141.769C142.79 142.352 142.183 142.63 141.519 142.605C140.861 142.587 140.191 142.256 139.508 141.613L138.029 140.219C137.26 139.495 136.494 138.994 135.731 138.715L135.475 138.474L137.406 136.424L137.662 136.665C137.903 137.141 138.364 137.7 139.048 138.344L140.504 139.715C140.954 140.139 141.335 140.396 141.647 140.485C141.967 140.581 142.295 140.45 142.632 140.093C142.968 139.736 143.233 139.128 143.426 138.269L141.516 136.47C140.7 135.702 139.946 135.204 139.252 134.976L138.996 134.735L140.916 132.696L141.172 132.938C141.444 133.443 141.933 134.028 142.64 134.694L144.2 136.163C145.124 137.034 145.922 137.346 146.594 137.099L146.85 137.34L145.434 139.567L145.092 139.487C144.847 139.374 144.559 139.182 144.226 138.913C144.172 139.609 144.087 140.174 143.971 140.607C143.857 141.056 143.646 141.443 143.338 141.769ZM136.117 152.356L133.898 153.956C132.868 154.68 131.984 155.092 131.247 155.193C130.51 155.294 129.896 154.996 129.405 154.298C129.074 153.827 128.911 153.335 128.916 152.823C128.912 152.317 129.028 151.851 129.263 151.425C128.761 151.621 128.205 151.692 127.594 151.64C126.862 151.581 126.241 151.189 125.732 150.465C125.229 149.75 125 149.044 125.045 148.347C125.089 147.65 125.321 147.006 125.738 146.412C126.147 145.825 126.77 145.237 127.607 144.648C128.993 143.726 129.703 143.252 129.738 143.228L130.767 142.465L130.979 142.766C131.105 143.317 131.447 143.989 132.005 144.783L135.364 149.56C135.966 150.415 136.5 151.018 136.967 151.367L137.17 151.655C136.913 151.809 136.562 152.043 136.117 152.356ZM131.474 148.951L131.932 148.629C130.466 146.543 129.572 145.3 129.252 144.9C128.866 145.093 128.581 145.254 128.398 145.383C127.735 145.849 127.328 146.402 127.178 147.042C127.02 147.688 127.152 148.312 127.576 148.915C128.447 150.154 129.746 150.166 131.474 148.951ZM130.94 152.671C131.308 153.194 131.7 153.473 132.115 153.507C132.53 153.541 132.978 153.39 133.458 153.052C133.929 152.721 134.269 152.462 134.477 152.277C134.4 152.148 133.739 151.199 132.493 149.427L131.603 150.053C130.486 150.838 130.265 151.711 130.94 152.671ZM118.801 149.777C119.627 149.354 120.526 149.284 121.497 149.566C122.468 149.848 123.22 150.511 123.755 151.556C124.294 152.61 124.418 153.709 124.128 154.851C123.843 156.004 123.149 156.862 122.048 157.425C121.117 157.901 120.271 157.956 119.509 157.591C118.747 157.226 118.097 156.517 117.558 155.462L117.815 154.63L121.718 152.634C121.359 151.955 120.909 151.52 120.368 151.329C119.818 151.144 119.296 151.177 118.802 151.43C118.298 151.687 117.677 152.334 116.937 153.371L116.304 153.012C116.397 152.749 116.512 152.469 116.647 152.172C116.783 151.875 117.056 151.46 117.466 150.927C117.872 150.408 118.317 150.024 118.801 149.777ZM121.909 156.346C122.261 156.166 122.504 155.952 122.64 155.702C122.671 155.387 122.629 155.013 122.516 154.58C122.402 154.147 122.272 153.776 122.126 153.467L119.706 154.885C120.406 156.252 121.14 156.739 121.909 156.346ZM110.938 153.214C111.809 152.895 112.71 152.934 113.639 153.332C114.569 153.73 115.236 154.48 115.639 155.581C116.047 156.693 116.037 157.799 115.61 158.898C115.187 160.007 114.395 160.774 113.233 161.2C112.252 161.56 111.405 161.512 110.693 161.057C109.981 160.602 109.422 159.819 109.014 158.707L109.37 157.912L113.487 156.404C113.213 155.687 112.819 155.201 112.305 154.946C111.781 154.695 111.259 154.664 110.738 154.855C110.207 155.05 109.512 155.617 108.652 156.557L108.068 156.123C108.192 155.873 108.339 155.609 108.51 155.331C108.681 155.052 109.002 154.673 109.474 154.194C109.939 153.728 110.427 153.401 110.938 153.214ZM113.227 160.112C113.597 159.976 113.865 159.793 114.03 159.562C114.099 159.253 114.103 158.876 114.043 158.433C113.982 157.989 113.899 157.605 113.791 157.281L111.217 158.395C111.745 159.837 112.415 160.409 113.227 160.112ZM103.218 155.85L105.745 155.271L105.823 155.615C105.773 156.162 105.863 156.935 106.091 157.933L107.494 164.063C107.699 164.957 108.086 165.574 108.657 165.914L108.735 166.257L106.287 167.392L106.021 167.092C105.986 166.793 105.769 165.776 105.372 164.04L104.679 161.014L102.747 163.327C102.55 163.569 102.475 163.789 102.52 163.987L100.071 164.547L99.9928 164.204C100.376 164.062 100.852 163.63 101.42 162.909L103.216 160.643L99.7191 158.276C99.5123 158.137 99.1936 157.964 98.763 157.756C98.3244 157.561 97.9796 157.465 97.7286 157.467L97.65 157.124L100.613 156.446C100.659 156.644 100.81 156.828 101.068 156.998C101.427 157.277 102.499 158.039 104.283 159.283L104.122 158.581C103.863 157.448 103.588 156.652 103.297 156.193L103.218 155.85ZM87.1729 157.072C88.0476 157.064 88.8704 157.221 89.6415 157.545C90.4125 157.857 91.0941 158.299 91.6862 158.869C92.2677 159.451 92.7274 160.124 93.0654 160.888C93.3926 161.653 93.5604 162.473 93.5687 163.348C93.5771 164.233 93.4249 165.056 93.1121 165.816C92.7887 166.587 92.3418 167.264 91.7712 167.845C91.1902 168.437 90.5171 168.897 89.7522 169.224C88.9874 169.562 88.1677 169.735 87.293 169.744C86.4077 169.752 85.5849 169.594 84.8244 169.271C84.0534 168.958 83.3772 168.511 82.7956 167.93C82.2035 167.36 81.7439 166.692 81.4166 165.927C81.0788 165.173 80.9057 164.353 80.8973 163.468C80.889 162.593 81.0465 161.77 81.3699 160.999C81.6826 160.228 82.1295 159.547 82.7106 158.954C83.2811 158.373 83.9488 157.919 84.7137 157.591C85.4679 157.254 86.2876 157.081 87.1729 157.072ZM71.0996 167.518L68.4217 166.957C67.193 166.684 66.2928 166.309 65.7212 165.832C65.1496 165.356 64.9563 164.701 65.1413 163.868C65.2661 163.306 65.5194 162.854 65.9012 162.513C66.2725 162.169 66.6948 161.94 67.168 161.827C66.6855 161.589 66.2579 161.226 65.8853 160.739C65.4352 160.158 65.3061 159.436 65.498 158.571C65.6876 157.718 66.0548 157.072 66.5997 156.636C67.1446 156.2 67.7768 155.936 68.4964 155.845C69.2056 155.751 70.0601 155.815 71.0597 156.037C72.6749 156.439 73.5033 156.645 73.5449 156.654L74.8014 156.9L74.7217 157.26C74.4001 157.724 74.1341 158.43 73.9237 159.377L72.6577 165.078C72.431 166.099 72.3461 166.899 72.4029 167.48L72.3266 167.824C72.0397 167.738 71.6306 167.636 71.0996 167.518ZM70.4861 161.793L71.0328 161.915C71.5855 159.426 71.9017 157.928 71.9814 157.422C71.5788 157.267 71.2681 157.165 71.0494 157.116C70.2581 156.941 69.5755 157.013 69.0017 157.333C68.4174 157.652 68.0456 158.17 67.886 158.889C67.5576 160.367 68.4243 161.336 70.4861 161.793ZM67.3783 163.906C67.2395 164.531 67.2974 165.008 67.552 165.338C67.8066 165.667 68.2202 165.896 68.793 166.023C69.3553 166.148 69.7752 166.225 70.0529 166.254C70.0957 166.11 70.3518 164.981 70.8212 162.868L69.7591 162.632C68.4262 162.336 67.6326 162.76 67.3783 163.906ZM61.3047 153.343L63.9361 154.3L63.8158 154.631C63.4485 155.11 63.1191 155.751 62.8275 156.553L62.0128 158.794C61.8524 159.235 61.7827 159.692 61.8036 160.165C61.8109 160.644 61.9062 160.991 62.0893 161.205L61.969 161.536L59.6684 161.261L59.5946 160.996C59.5673 160.884 59.5518 160.645 59.5481 160.281C58.6997 160.585 57.9196 160.608 57.2079 160.349C56.857 160.222 56.5567 160.033 56.307 159.783C56.3253 159.733 56.3417 159.688 56.3562 159.648C56.5859 159.016 56.9409 158.43 57.4211 157.89C57.8175 158.454 58.3215 158.847 58.933 159.07C59.1235 159.139 59.365 159.193 59.6575 159.231L60.7346 156.269C61.0846 155.306 61.2345 154.442 61.1844 153.674L61.3047 153.343ZM52.7994 153.013C53.0827 153.307 53.435 153.557 53.8561 153.765C54.2676 153.967 54.6212 154.046 54.9166 154.001C55.1497 153.89 55.3392 153.686 55.4851 153.389C55.8524 152.643 55.7106 152.109 55.0598 151.789C54.5238 151.525 53.9704 151.527 53.3997 151.793L52.7994 153.013ZM56.2629 150.83C56.8658 151.126 57.3076 151.569 57.5881 152.159C57.8686 152.749 57.8393 153.388 57.5003 154.077C56.8458 155.408 55.5471 155.595 53.6041 154.639L52.3546 153.953L51.9238 154.829C51.6789 155.327 51.6056 155.79 51.7038 156.219C51.802 156.647 52.1095 156.989 52.6263 157.243C52.7412 157.3 52.9201 157.31 53.1632 157.275C53.4015 157.25 53.6135 157.206 53.7992 157.142C54.3752 156.962 54.8418 156.811 55.1987 156.69C55.3995 157.49 55.3778 158.186 55.1335 158.78C53.7201 158.56 52.5922 158.243 51.75 157.828C50.9077 157.414 50.3007 156.872 49.9291 156.201C49.5575 155.531 49.5788 154.775 49.9932 153.933L51.102 151.679C51.3139 151.248 51.4446 150.801 51.4941 150.338C51.5436 149.875 51.496 149.525 51.3513 149.287L51.478 148.957L53.7429 149.536C53.7548 149.899 53.7006 150.372 53.5803 150.954C53.961 150.809 54.2609 150.707 54.48 150.648C54.6943 150.599 54.9709 150.58 55.3096 150.592C55.6388 150.6 55.9566 150.679 56.2629 150.83ZM41.3768 151.702C40.7119 151.258 40.3371 150.705 40.2525 150.045C40.1619 149.394 40.3775 148.679 40.8995 147.899L42.0296 146.21C42.6168 145.332 42.9851 144.494 43.1343 143.696L43.3301 143.403L45.6705 144.969L45.4748 145.262C45.0452 145.577 44.5695 146.125 44.0475 146.906L42.9353 148.568C42.5912 149.082 42.4012 149.5 42.3651 149.823C42.3232 150.154 42.5061 150.456 42.9139 150.729C43.3217 151.002 43.9648 151.163 44.8434 151.211L46.3026 149.031C46.9255 148.1 47.2922 147.273 47.4029 146.552L47.5987 146.259L49.9258 147.816L49.73 148.109C49.2768 148.46 48.7803 149.039 48.2405 149.846L47.0482 151.628C46.3423 152.683 46.1663 153.521 46.5203 154.143L46.3245 154.436L43.8945 153.406L43.9173 153.056C43.9887 152.796 44.1298 152.479 44.3404 152.107C43.6451 152.168 43.0741 152.177 42.6275 152.135C42.166 152.096 41.7491 151.952 41.3768 151.702ZM37.7563 143.898C38.9873 142.495 39.1939 141.435 38.376 140.717C37.7987 140.211 36.8264 139.791 35.4592 139.457L35.5791 138.689C36.1601 138.674 36.8418 138.754 37.6243 138.93C38.3987 139.098 38.9703 139.344 39.3392 139.668C40.2453 140.463 40.7202 141.369 40.7641 142.387C40.7928 143.405 40.4098 144.367 39.6149 145.274C38.813 146.188 37.8155 146.653 36.6224 146.671C35.4222 146.696 34.3932 146.333 33.5352 145.58C32.6772 144.828 32.1189 143.976 31.8602 143.025C32.5338 142.807 33.1035 142.676 33.5691 142.63C33.7825 143.697 34.1858 144.491 34.7792 145.011C34.9315 145.145 35.0784 145.253 35.2198 145.334C35.5971 145.325 36.0157 145.195 36.4756 144.946C36.9355 144.697 37.3624 144.347 37.7563 143.898ZM33.2358 133.484C34.0518 134.414 34.4228 135.387 34.3488 136.402C34.2677 137.41 33.7822 138.304 32.8921 139.085C32.002 139.865 30.9694 140.225 29.7943 140.163C28.6112 140.108 27.6011 139.604 26.7641 138.65C25.92 137.688 25.545 136.718 25.6391 135.742C25.7182 134.764 26.2068 133.882 27.1049 133.094C28.003 132.306 29.0436 131.939 30.2267 131.994C31.4098 132.049 32.4129 132.545 33.2358 133.484ZM28.9249 134.562C28.1471 135.244 27.6401 135.888 27.4041 136.492C27.16 137.103 27.2842 137.69 27.7765 138.251C28.0931 138.612 28.4275 138.815 28.7797 138.861C29.0767 138.828 29.4448 138.689 29.884 138.446C30.3232 138.202 30.7152 137.929 31.06 137.627C32.7359 136.157 33.1061 134.889 32.1706 133.822C31.8892 133.501 31.5764 133.315 31.2322 133.262C30.9282 133.287 30.5596 133.433 30.1265 133.7C29.6782 133.965 29.2777 134.253 28.9249 134.562ZM19.6052 128.743C19.8237 128.61 20.3925 128.006 21.3115 126.933L23.2061 124.632L19.7032 125.496C19.1116 125.633 18.5927 125.837 18.1466 126.11L17.9828 126.21L16.7902 124.257L17.0907 124.074C17.4248 124.232 18.0293 124.219 18.9042 124.035L24.2381 122.914L25.0649 122.672L26.1369 124.304L25.495 125.034L22.0769 129.352C21.865 129.619 21.6861 129.91 21.5404 130.224C21.3947 130.538 21.3325 130.763 21.3537 130.9L21.0532 131.084L19.4414 128.843L19.6052 128.743ZM18.2772 116.633C18.3108 117.04 18.4252 117.457 18.6204 117.884C18.8112 118.301 19.0352 118.586 19.2924 118.738C19.5433 118.799 19.819 118.761 20.1198 118.623C20.8764 118.277 21.1039 117.774 20.8022 117.115C20.5538 116.571 20.1244 116.222 19.514 116.068L18.2772 116.633ZM22.3409 117.132C22.6204 117.743 22.6823 118.366 22.5266 119C22.371 119.635 21.9439 120.111 21.2455 120.431C19.8971 121.047 18.7727 120.371 17.8721 118.402L17.3381 117.08L16.4505 117.486C15.9461 117.717 15.5963 118.029 15.4013 118.423C15.2062 118.818 15.2284 119.277 15.468 119.8C15.5212 119.917 15.653 120.038 15.8634 120.165C16.0641 120.296 16.2564 120.396 16.4401 120.464C17.0003 120.689 17.4571 120.867 17.8106 120.999C17.46 121.746 17.0026 122.271 16.4384 122.576C15.4825 121.512 14.8094 120.553 14.419 119.7C14.0286 118.846 13.9014 118.042 14.0374 117.288C14.1734 116.534 14.6682 115.961 15.5218 115.571L17.8063 114.526C18.2428 114.327 18.6266 114.063 18.9578 113.736C19.289 113.408 19.4737 113.107 19.5119 112.831L19.8187 112.656L21.2068 114.537C20.9868 114.825 20.6459 115.157 20.1842 115.532C20.5711 115.66 20.868 115.771 21.0748 115.864C21.2719 115.962 21.4978 116.122 21.7525 116.346C22.0028 116.56 22.199 116.822 22.3409 117.132ZM10.2616 108.384C10.0287 107.619 10.0884 106.954 10.4407 106.389C10.7828 105.828 11.4028 105.411 12.3008 105.138L14.2448 104.546C15.2551 104.239 16.0708 103.823 16.6919 103.3L17.0287 103.197L17.8485 105.891L17.5117 105.994C16.9793 105.966 16.2641 106.089 15.3661 106.362L13.4527 106.945C12.8609 107.125 12.4489 107.328 12.2169 107.555C11.9746 107.785 11.9249 108.134 12.0677 108.604C12.2106 109.073 12.6065 109.605 13.2556 110.199L15.766 109.435C16.8375 109.109 17.6445 108.702 18.1871 108.213L18.5239 108.111L19.339 110.79L19.0023 110.892C18.4291 110.877 17.6781 111.011 16.7495 111.293L14.6984 111.917C13.484 112.287 12.8169 112.824 12.6971 113.53L12.3604 113.632L11.1313 111.297L11.3709 111.04C11.5909 110.884 11.9004 110.728 12.2993 110.574C11.7225 110.18 11.2746 109.826 10.9556 109.511C10.6233 109.188 10.392 108.813 10.2616 108.384ZM4.6701 96.8563L4.38506 94.135C4.26859 92.8817 4.34969 91.91 4.62836 91.22C4.90703 90.5299 5.47121 90.1454 6.32088 90.0664C6.89441 90.0131 7.4021 90.1159 7.84395 90.3748C8.28481 90.623 8.63169 90.955 8.88458 91.3708C8.96366 90.8385 9.17798 90.3204 9.52752 89.8166C9.94253 89.2103 10.5908 88.8661 11.4723 88.7842C12.3432 88.7033 13.0698 88.8554 13.6519 89.2405C14.234 89.6256 14.6788 90.1467 14.9863 90.8037C15.2927 91.4501 15.4934 92.2831 15.5881 93.3027C15.6996 94.9635 15.7573 95.8152 15.7613 95.8577L15.9116 97.1292L15.5452 97.1633C15.005 96.9992 14.2517 96.9621 13.2852 97.0519L7.47022 97.5923C6.42937 97.6891 5.6412 97.8534 5.10569 98.0852L4.7552 98.1178C4.7488 97.8185 4.72044 97.3979 4.6701 96.8563ZM9.93242 94.5193L9.98424 95.0769C12.5226 94.841 14.0453 94.6834 14.5521 94.6042C14.5763 94.1734 14.5781 93.8465 14.5574 93.6235C14.4824 92.8163 14.2044 92.1887 13.7236 91.7406C13.2417 91.2819 12.6344 91.0866 11.9015 91.1547C10.3934 91.2948 9.73699 92.4164 9.93242 94.5193ZM6.96979 92.2075C6.33254 92.2668 5.89596 92.468 5.66004 92.8113C5.42413 93.1546 5.33332 93.6184 5.38761 94.2025C5.44091 94.776 5.49632 95.1994 5.55385 95.4726C5.70353 95.4694 6.85639 95.3676 9.01243 95.1672L8.91175 94.0839C8.78541 92.7244 8.13809 92.099 6.96979 92.2075ZM15.5126 83.1127C15.4691 84.0396 15.0838 84.8545 14.3567 85.5572C13.6297 86.2599 12.6801 86.5837 11.5081 86.5287C10.3254 86.4732 9.3101 86.0358 8.46224 85.2165C7.60372 84.3967 7.20346 83.3688 7.26145 82.1328C7.31045 81.0887 7.68257 80.3266 8.37783 79.8467C9.07309 79.3667 10.0121 79.1545 11.1948 79.21L11.7896 79.8466L11.5841 84.2257C12.3518 84.2511 12.9526 84.0764 13.3867 83.7017C13.8212 83.3163 14.0515 82.8465 14.0775 82.2925C14.104 81.7278 13.8507 80.867 13.3177 79.71L13.9437 79.339C14.126 79.5504 14.3124 79.7887 14.5028 80.054C14.6933 80.3192 14.9181 80.7622 15.1773 81.383C15.4263 81.9927 15.5381 82.5693 15.5126 83.1127ZM8.26708 82.5484C8.24858 82.9427 8.31374 83.2607 8.46257 83.5026C8.72094 83.6856 9.06631 83.8353 9.49866 83.9517C9.93101 84.0681 10.3174 84.1396 10.6579 84.1663L10.6293 81.3618C9.09498 81.2898 8.30757 81.6854 8.26708 82.5484ZM16.4272 74.5796C16.2729 75.4947 15.7928 76.2575 14.9867 76.868C14.1807 77.4784 13.1991 77.6861 12.0421 77.4911C10.8746 77.2942 9.91908 76.7383 9.17553 75.8233C8.42147 74.9065 8.14729 73.838 8.35301 72.6179C8.52681 71.5871 8.98759 70.8751 9.73536 70.482C10.4831 70.0888 11.4408 69.9907 12.6083 70.1875L13.1225 70.8908L12.3936 75.2138C13.1527 75.331 13.7702 75.2296 14.246 74.9096C14.7236 74.579 15.0085 74.1403 15.1007 73.5933C15.1947 73.0359 15.0465 72.1509 14.656 70.9384L15.322 70.6451C15.4776 70.8769 15.6341 71.1358 15.7914 71.4219C15.9487 71.7081 16.1188 72.1749 16.3017 72.8223C16.4758 73.4574 16.5177 74.0432 16.4272 74.5796ZM9.30157 73.151C9.23596 73.5402 9.26253 73.8638 9.38128 74.1218C9.61586 74.3344 9.9408 74.5244 10.3561 74.6918C10.7714 74.8592 11.1464 74.9765 11.4812 75.0438L11.789 72.2561C10.2744 72.0007 9.44522 72.299 9.30157 73.151ZM17.9646 66.5686L17.2136 69.0494L16.8767 68.9474C16.4259 68.6327 15.7105 68.3269 14.7304 68.0303L8.71206 66.2085C7.83407 65.9427 7.10605 65.9731 6.52799 66.2996L6.19108 66.1976L6.41997 63.5086L6.8125 63.4268C7.08909 63.544 8.07985 63.8606 9.78478 64.3767L12.7556 65.276L11.7052 62.4505C11.5925 62.1601 11.4392 61.9855 11.2452 61.9268L11.973 59.5225L12.3099 59.6245C12.2435 60.0279 12.3825 60.655 12.7267 61.5059L13.8035 64.189L17.5935 62.3272C17.8165 62.2164 18.125 62.0256 18.519 61.7548C18.9059 61.4707 19.1604 61.219 19.2826 60.9996L19.6195 61.1016L18.7387 64.0112C18.5447 63.9525 18.3096 63.9928 18.0334 64.1321C17.6131 64.3057 16.4204 64.8586 14.4555 65.7906L15.1446 65.9992C16.2574 66.336 17.0851 66.4918 17.6277 66.4666L17.9646 66.5686ZM24.8648 52.0338C24.4374 52.797 23.8919 53.4328 23.2281 53.9414C22.5737 54.4551 21.8519 54.8272 21.0627 55.0577C20.2694 55.2736 19.4569 55.3382 18.6253 55.2515C17.7988 55.1555 17.004 54.8938 16.2409 54.4665C15.4684 54.0339 14.8299 53.493 14.3255 52.8438C13.8169 52.1801 13.4521 51.4562 13.2309 50.6722C13.0057 49.8737 12.9411 49.0612 13.0371 48.2348C13.1238 47.4031 13.3808 46.6057 13.8082 45.8425C14.2407 45.0701 14.7863 44.4342 15.4448 43.935C16.0992 43.4212 16.8231 43.0564 17.6164 42.8405C18.4056 42.61 19.2134 42.5428 20.0399 42.6388C20.8622 42.7203 21.6596 42.9773 22.4321 43.4099C23.1953 43.8372 23.8311 44.3828 24.3397 45.0465C24.8534 45.7009 25.2229 46.4274 25.4482 47.2259C25.6693 48.0099 25.7319 48.8151 25.6359 49.6416C25.5544 50.4639 25.2973 51.2613 24.8648 52.0338Z" fill="#959595"/>
<path d="M61.0341 109.575C59.6553 108.201 59.6553 105.973 61.0341 104.598C62.4129 103.224 64.6488 103.224 66.0277 104.598L82.4693 120.985V43.5189C82.4693 41.5755 84.0501 40 86 40C87.9499 40 89.5307 41.5755 89.5307 43.5189V120.985L105.972 104.598C107.351 103.224 109.587 103.224 110.966 104.598C112.345 105.973 112.345 108.201 110.966 109.575L88.4963 131.969C87.1175 133.344 84.8825 133.344 83.5037 131.969L61.0341 109.575Z" fill="#959595"/>
</svg>
